# This file uses centimeters as units for non-parametric coordinates.

mtllib Escudo.mtl
g default
v -2.117022 1.285510 0.887944
v -2.117022 1.220950 0.791323
v -2.117022 1.124329 0.726763
v -2.117022 1.010357 0.704092
v -2.117022 0.896384 0.726763
v -2.117022 0.799763 0.791323
v -2.117022 0.735203 0.887944
v -2.117022 0.712533 1.001917
v -2.117022 0.735203 1.115888
v -2.117022 0.799763 1.212509
v -2.117022 0.896384 1.277070
v -2.117022 1.010357 1.299740
v -2.117022 1.124329 1.277070
v -2.117022 1.220950 1.212509
v -2.117022 1.285510 1.115888
v -2.117022 1.308181 1.001917
v -2.294483 1.722969 0.706743
v -2.294483 1.555767 0.456506
v -2.294483 1.305531 0.289305
v -2.294483 1.010357 0.230591
v -2.294483 0.715184 0.289305
v -2.294483 0.464947 0.456506
v -2.294483 0.297745 0.706742
v -2.294483 0.239031 1.001915
v -2.294483 0.297745 1.297089
v -2.294483 0.464947 1.547325
v -2.294483 0.715183 1.714529
v -2.294483 1.010357 1.773242
v -2.294483 1.305530 1.714529
v -2.294483 1.555766 1.547325
v -2.294483 1.722969 1.297089
v -2.294483 1.781682 1.001917
v -2.540066 1.855747 0.619233
v -2.540066 1.676765 0.294810
v -2.540066 1.393041 0.078037
v -2.540066 1.010357 0.001916
v -2.540066 0.627674 0.078036
v -2.540066 0.303250 0.294809
v -2.540066 0.086477 0.619232
v -2.540066 0.010357 1.001915
v -2.540066 0.086477 1.384599
v -2.540066 0.303250 1.709022
v -2.540066 0.627673 1.925796
v -2.540066 1.010357 2.001916
v -2.540066 1.393040 1.925796
v -2.540066 1.676765 1.709023
v -2.540066 1.855747 1.384599
v -2.540066 1.981286 1.001917
v -2.445200 1.605670 0.730522
v -2.445200 1.478739 0.500445
v -2.445200 1.114747 0.346712
v -2.445200 0.998731 0.344941
v -2.445200 0.885182 0.346712
v -2.445200 0.504659 0.500445
v -2.445200 0.350926 0.730522
v -2.445200 0.296942 1.001915
v -2.445200 0.350926 1.273310
v -2.445200 0.504658 1.503387
v -2.445200 0.885182 1.657119
v -2.445200 0.998731 1.658891
v -2.445200 1.114746 1.657119
v -2.445200 1.478738 1.503387
v -2.445200 1.605670 1.273311
v -2.445200 1.694701 1.001916
v -2.340497 1.254398 0.886845
v -2.340497 1.200579 0.789292
v -2.340497 1.115264 0.724110
v -2.340497 1.000192 0.724259
v -2.340497 0.885121 0.724110
v -2.340497 0.787568 0.789292
v -2.340497 0.722386 0.886845
v -2.340497 0.699497 1.001916
v -2.340497 0.722386 1.116988
v -2.340497 0.787568 1.214540
v -2.340497 0.885121 1.279723
v -2.340497 1.000192 1.280249
v -2.340497 1.115264 1.279723
v -2.340497 1.200579 1.214540
v -2.340497 1.254398 1.116988
v -2.340497 1.292146 1.001916
v -2.819885 0.995211 1.191105
v -2.818828 1.111226 1.189683
v -2.606254 1.111744 1.164936
v -2.605480 0.996672 1.164642
v -2.606254 0.881601 1.164936
v -2.818828 0.881662 1.189683
v -2.820240 0.998731 0.736342
v -2.820240 0.885182 0.738114
v -2.605703 0.885121 0.804884
v -2.605703 1.000192 0.804763
v -2.605703 1.115264 0.804884
v -2.820240 1.114747 0.738114
vt 0.661495 0.978399
vt 0.636538 0.888463
vt 0.699874 0.861102
vt 0.750532 0.867000
vt 0.699741 0.775294
vt 0.750868 0.759383
vt 0.636540 0.756043
vt 0.661494 0.666106
vt 0.784755 0.760128
vt 0.809711 0.670192
vt 0.898747 0.781592
vt 0.848089 0.787491
vt 0.899088 0.889209
vt 0.847961 0.873299
vt 0.809716 0.982487
vt 0.784760 0.892551
vt 0.365377 0.696465
vt 0.351389 0.673584
vt 0.436751 0.593769
vt 0.473687 0.655420
vt 0.369623 0.722883
vt 0.363353 0.748962
vt 0.347721 0.770694
vt 0.325003 0.784767
vt 0.298587 0.789005
vt 0.272541 0.782807
vt 0.250837 0.767112
vt 0.236784 0.744300
vt 0.232528 0.717835
vt 0.238724 0.691742
vt 0.254430 0.669997
vt 0.277251 0.655913
vt 0.303702 0.651639
vt 0.329735 0.657829
vt 0.378109 0.551463
vt 0.485988 0.536850
vt 0.536590 0.623809
vt 0.486848 0.726546
vt 0.468919 0.796466
vt 0.428013 0.855412
vt 0.367051 0.894160
vt 0.295463 0.905632
vt 0.225012 0.889323
vt 0.166165 0.847388
vt 0.127844 0.786104
vt 0.115908 0.714771
vt 0.132211 0.644251
vt 0.174307 0.585297
vt 0.235820 0.546911
vt 0.307403 0.534991
vt 0.409820 0.478890
vt 0.560133 0.729301
vt 0.529366 0.832487
vt 0.473373 0.915114
vt 0.394384 0.966865
vt 0.293648 0.984445
vt 0.193508 0.961832
vt 0.109409 0.902476
vt 0.054346 0.815331
vt 0.036825 0.713655
vt 0.059585 0.612950
vt 0.119210 0.528576
vt 0.206674 0.473411
vt 0.308720 0.455923
vt 0.879025 0.392752
vt 0.834581 0.471187
vt 0.785136 0.419716
vt 0.815971 0.364600
vt 0.765502 0.523498
vt 0.697740 0.456850
vt 0.717487 0.349214
vt 0.730174 0.326256
vt 0.908815 0.299411
vt 0.837143 0.299298
vt 0.672636 0.542017
vt 0.669855 0.457335
vt 0.697386 0.364557
vt 0.670282 0.364495
vt 0.643202 0.364459
vt 0.620264 0.349064
vt 0.604987 0.326058
vt 0.599705 0.298957
vt 0.605086 0.271855
vt 0.620437 0.248879
vt 0.643416 0.233530
vt 0.670509 0.233480
vt 0.697577 0.233699
vt 0.717627 0.249092
vt 0.730247 0.272085
vt 0.739123 0.299176
vt 0.879301 0.205965
vt 0.816160 0.233932
vt 0.579691 0.523491
vt 0.642591 0.456892
vt 0.551351 0.419435
vt 0.514446 0.364058
vt 0.501616 0.298824
vt 0.514644 0.233636
vt 0.551707 0.178384
vt 0.643057 0.141241
vt 0.698202 0.141269
vt 0.785483 0.178710
vt 0.835074 0.127372
vt 0.500968 0.470715
vt 0.448189 0.391888
vt 0.429584 0.298710
vt 0.448475 0.205598
vt 0.501477 0.126958
vt 0.580321 0.074458
vt 0.766122 0.074823
vt 0.673250 0.056114
vt 0.670348 0.140791
vt 0.263519 0.429528
vt 0.236096 0.429458
vt 0.236935 0.343696
vt 0.264357 0.343725
vt 0.208672 0.429528
vt 0.209512 0.343725
vt 0.114879 0.192121
vt 0.141930 0.192117
vt 0.141916 0.300403
vt 0.114856 0.299825
vt 0.116822 0.049471
vt 0.143896 0.049352
vt 0.169573 0.192554
vt 0.169560 0.300256
vt 0.140893 0.429554
vt 0.113828 0.429033
vt 0.171553 0.049903
vt 0.168550 0.429466
vt 0.264077 0.145179
vt 0.236657 0.144837
vt 0.236802 0.075936
vt 0.264224 0.076186
vt 0.209237 0.144395
vt 0.209384 0.075403
vt 0.209556 0.208672
vt 0.236977 0.208903
vt 0.236447 0.274950
vt 0.209026 0.274738
vt 0.264399 0.209113
vt 0.263869 0.275178
vn 0.934122 0.296796 -0.198313
vn 0.934122 0.296796 -0.198313
vn 0.934122 0.296796 -0.198313
vn 0.934122 0.296796 -0.198313
vn 0.934122 0.198312 -0.296797
vn 0.934122 0.198312 -0.296797
vn 0.934122 0.198312 -0.296797
vn 0.934122 0.198312 -0.296797
vn 0.934122 0.069639 -0.350095
vn 0.934122 0.069639 -0.350095
vn 0.934122 0.069639 -0.350095
vn 0.934122 0.069639 -0.350095
vn 0.934122 -0.069638 -0.350095
vn 0.934122 -0.069638 -0.350095
vn 0.934122 -0.069638 -0.350095
vn 0.934122 -0.069638 -0.350095
vn 0.934122 -0.198312 -0.296797
vn 0.934122 -0.198312 -0.296797
vn 0.934122 -0.198312 -0.296797
vn 0.934122 -0.198312 -0.296797
vn 0.934122 -0.296796 -0.198312
vn 0.934122 -0.296796 -0.198312
vn 0.934122 -0.296796 -0.198312
vn 0.934122 -0.296796 -0.198312
vn 0.934122 -0.350095 -0.069638
vn 0.934122 -0.350095 -0.069638
vn 0.934122 -0.350095 -0.069638
vn 0.934122 -0.350095 -0.069638
vn 0.934122 -0.350095 0.069638
vn 0.934122 -0.350095 0.069638
vn 0.934122 -0.350095 0.069638
vn 0.934122 -0.350095 0.069638
vn 0.934122 -0.296796 0.198313
vn 0.934122 -0.296796 0.198313
vn 0.934122 -0.296796 0.198313
vn 0.934122 -0.296796 0.198313
vn 0.934122 -0.198314 0.296795
vn 0.934122 -0.198314 0.296795
vn 0.934122 -0.198315 0.296795
vn 0.934122 -0.198314 0.296795
vn 0.934122 -0.069638 0.350095
vn 0.934122 -0.069638 0.350095
vn 0.934122 -0.069638 0.350095
vn 0.934122 -0.069638 0.350095
vn 0.934122 0.069638 0.350095
vn 0.934122 0.069638 0.350095
vn 0.934122 0.069638 0.350095
vn 0.934122 0.069638 0.350095
vn 0.934122 0.198314 0.296796
vn 0.934122 0.198314 0.296796
vn 0.934122 0.198314 0.296796
vn 0.934122 0.198314 0.296796
vn 0.934122 0.296796 0.198313
vn 0.934122 0.296796 0.198314
vn 0.934122 0.296796 0.198313
vn 0.934122 0.296796 0.198313
vn 0.934122 0.350095 0.069637
vn 0.934122 0.350095 0.069637
vn 0.934122 0.350095 0.069637
vn 0.934122 0.350095 0.069637
vn 0.934122 0.350095 -0.069638
vn 0.934122 0.350095 -0.069638
vn 0.934122 0.350095 -0.069638
vn 0.934122 0.350095 -0.069638
vn 0.575871 0.700288 -0.421864
vn 0.575871 0.700288 -0.421864
vn 0.575871 0.700288 -0.421864
vn 0.575871 0.700288 -0.421864
vn 0.653926 0.441699 -0.614233
vn 0.653926 0.441699 -0.614233
vn 0.653926 0.441699 -0.614233
vn 0.653926 0.441699 -0.614233
vn 0.674356 0.144057 -0.724218
vn 0.674356 0.144057 -0.724218
vn 0.674356 0.144057 -0.724218
vn 0.674356 0.144057 -0.724218
vn 0.674356 -0.144056 -0.724218
vn 0.674356 -0.144056 -0.724218
vn 0.674356 -0.144056 -0.724218
vn 0.674356 -0.144056 -0.724218
vn 0.674356 -0.410236 -0.613963
vn 0.674356 -0.410236 -0.613963
vn 0.674356 -0.410236 -0.613963
vn 0.674356 -0.410236 -0.613963
vn 0.674356 -0.613962 -0.410237
vn 0.674356 -0.613962 -0.410237
vn 0.674356 -0.613962 -0.410237
vn 0.674356 -0.613962 -0.410237
vn 0.674356 -0.724218 -0.144056
vn 0.674356 -0.724218 -0.144056
vn 0.674356 -0.724218 -0.144056
vn 0.674356 -0.724218 -0.144056
vn 0.674356 -0.724218 0.144056
vn 0.674356 -0.724218 0.144056
vn 0.674356 -0.724218 0.144056
vn 0.674356 -0.724218 0.144056
vn 0.674356 -0.613963 0.410236
vn 0.674356 -0.613963 0.410236
vn 0.674356 -0.613963 0.410236
vn 0.674356 -0.613963 0.410236
vn 0.674355 -0.410238 0.613962
vn 0.674355 -0.410238 0.613962
vn 0.674355 -0.410238 0.613962
vn 0.674355 -0.410238 0.613962
vn 0.674355 -0.144056 0.724219
vn 0.674355 -0.144056 0.724219
vn 0.674355 -0.144056 0.724219
vn 0.674355 -0.144056 0.724219
vn 0.674355 0.144056 0.724219
vn 0.674355 0.144056 0.724219
vn 0.674355 0.144056 0.724219
vn 0.674355 0.144056 0.724219
vn 0.653925 0.441701 0.614233
vn 0.653925 0.441701 0.614233
vn 0.653925 0.441701 0.614233
vn 0.653925 0.441701 0.614233
vn 0.575872 0.700287 0.421864
vn 0.575872 0.700287 0.421864
vn 0.575872 0.700287 0.421864
vn 0.575872 0.700287 0.421864
vn 0.573330 0.790637 0.214909
vn 0.573330 0.790637 0.214909
vn 0.573330 0.790637 0.214909
vn 0.573330 0.790637 0.214909
vn 0.573330 0.790637 -0.214908
vn 0.573330 0.790637 -0.214908
vn 0.573330 0.790637 -0.214908
vn 0.573330 0.790637 -0.214908
vn -0.944490 -0.287666 0.158703
vn -0.944490 -0.287666 0.158703
vn -0.944490 -0.287666 0.158703
vn -0.944490 -0.287666 0.158703
vn -0.959733 -0.139481 0.243839
vn -0.959733 -0.139481 0.243839
vn -0.959733 -0.139480 0.243839
vn -0.959733 -0.139481 0.243839
vn -0.959837 -0.043296 0.277197
vn -0.959837 -0.043296 0.277197
vn -0.959837 -0.043296 0.277197
vn -0.959837 -0.043296 0.277197
vn -0.959048 0.043922 0.279817
vn -0.959048 0.043922 0.279817
vn -0.959048 0.043922 0.279817
vn -0.959048 0.043922 0.279817
vn -0.957941 0.133507 0.254019
vn -0.957940 0.133507 0.254019
vn -0.957941 0.133507 0.254019
vn -0.957941 0.133507 0.254019
vn -0.947707 0.265357 0.177306
vn -0.947707 0.265357 0.177306
vn -0.947707 0.265357 0.177306
vn -0.947707 0.265357 0.177306
vn -0.947490 0.313641 0.062387
vn -0.947490 0.313641 0.062387
vn -0.947490 0.313641 0.062387
vn -0.947490 0.313641 0.062387
vn -0.947490 0.313641 -0.062387
vn -0.947490 0.313641 -0.062387
vn -0.947490 0.313641 -0.062387
vn -0.947490 0.313641 -0.062387
vn -0.947707 0.265357 -0.177307
vn -0.947707 0.265357 -0.177307
vn -0.947707 0.265357 -0.177307
vn -0.947707 0.265357 -0.177307
vn -0.957941 0.133507 -0.254019
vn -0.957940 0.133507 -0.254019
vn -0.957940 0.133507 -0.254019
vn -0.957940 0.133507 -0.254019
vn -0.959048 0.043922 -0.279816
vn -0.959048 0.043922 -0.279816
vn -0.959048 0.043922 -0.279816
vn -0.959048 0.043922 -0.279816
vn -0.959837 -0.043295 -0.277196
vn -0.959837 -0.043295 -0.277196
vn -0.959837 -0.043295 -0.277196
vn -0.959837 -0.043295 -0.277196
vn -0.959733 -0.139480 -0.243838
vn -0.959733 -0.139480 -0.243838
vn -0.959733 -0.139480 -0.243838
vn -0.959733 -0.139480 -0.243838
vn -0.944490 -0.287666 -0.158704
vn -0.944490 -0.287666 -0.158704
vn -0.944490 -0.287666 -0.158704
vn -0.944490 -0.287666 -0.158704
vn -0.944334 -0.312597 -0.102547
vn -0.944334 -0.312597 -0.102547
vn -0.944334 -0.312597 -0.102547
vn -0.944334 -0.312597 -0.102547
vn -0.944334 -0.312597 0.102546
vn -0.944334 -0.312597 0.102546
vn -0.944334 -0.312597 0.102546
vn -0.944334 -0.312597 0.102546
vn -0.964619 -0.230846 0.127356
vn -0.964619 -0.230846 0.127356
vn -0.964619 -0.230846 0.127356
vn -0.964619 -0.230846 0.127356
vn -0.960269 -0.122237 0.250881
vn -0.960269 -0.122237 0.250881
vn -0.960269 -0.122237 0.250881
vn -0.960269 -0.122237 0.250881
vn -0.960576 0.115748 0.252777
vn -0.960576 0.115748 0.252777
vn -0.960576 0.115748 0.252777
vn -0.960576 0.115748 0.252777
vn -0.966731 0.212686 0.142112
vn -0.966731 0.212686 0.142112
vn -0.966731 0.212686 0.142112
vn -0.966731 0.212686 0.142112
vn -0.966589 0.251406 0.050008
vn -0.966589 0.251406 0.050008
vn -0.966589 0.251406 0.050008
vn -0.966589 0.251406 0.050008
vn -0.966589 0.251406 -0.050007
vn -0.966589 0.251406 -0.050007
vn -0.966589 0.251406 -0.050007
vn -0.966589 0.251406 -0.050007
vn -0.966731 0.212686 -0.142112
vn -0.966731 0.212686 -0.142112
vn -0.966731 0.212686 -0.142112
vn -0.966731 0.212686 -0.142112
vn -0.960576 0.115749 -0.252777
vn -0.960576 0.115749 -0.252777
vn -0.960576 0.115749 -0.252777
vn -0.960576 0.115749 -0.252777
vn -0.960269 -0.122236 -0.250882
vn -0.960269 -0.122236 -0.250882
vn -0.960269 -0.122236 -0.250882
vn -0.960269 -0.122236 -0.250882
vn -0.964619 -0.230846 -0.127357
vn -0.964619 -0.230846 -0.127357
vn -0.964619 -0.230846 -0.127357
vn -0.964619 -0.230846 -0.127357
vn -0.964517 -0.250868 -0.082298
vn -0.964517 -0.250868 -0.082298
vn -0.964517 -0.250868 -0.082298
vn -0.964517 -0.250868 -0.082298
vn -0.964517 -0.250868 0.082297
vn -0.964517 -0.250868 0.082297
vn -0.964517 -0.250868 0.082297
vn -0.964517 -0.250868 0.082297
vn -1.000000 0.000000 0.000000
vn -1.000000 0.000000 0.000000
vn -1.000000 0.000000 0.000000
vn -1.000000 0.000000 0.000000
vn -1.000000 0.000000 0.000000
vn -1.000000 0.000000 0.000000
vn -1.000000 0.000000 0.000000
vn -1.000000 0.000000 0.000000
vn -1.000000 0.000000 0.000000
vn -1.000000 0.000000 0.000000
vn -1.000000 0.000000 0.000000
vn -1.000000 0.000000 0.000000
vn -1.000000 0.000000 0.000000
vn -1.000000 0.000000 0.000000
vn -1.000000 0.000000 0.000000
vn -1.000000 0.000000 0.000000
vn 1.000000 0.000000 0.000000
vn 1.000000 0.000000 0.000000
vn 1.000000 0.000000 0.000000
vn 1.000000 0.000000 0.000000
vn 1.000000 0.000000 0.000000
vn 1.000000 0.000000 0.000000
vn 1.000000 0.000000 0.000000
vn 1.000000 0.000000 0.000000
vn 1.000000 0.000000 0.000000
vn 1.000000 0.000000 0.000000
vn 1.000000 0.000000 0.000000
vn 1.000000 0.000000 0.000000
vn 1.000000 0.000000 0.000000
vn 1.000000 0.000000 0.000000
vn 1.000000 0.000000 0.000000
vn 1.000000 0.000000 0.000000
vn -0.780800 0.012154 0.624662
vn -0.780801 0.012154 0.624662
vn -0.780800 0.012154 0.624662
vn -0.780801 0.012154 0.624662
vn -0.007770 0.999964 -0.003557
vn -0.007770 0.999964 -0.003557
vn -0.007770 0.999964 -0.003557
vn -0.007770 0.999964 -0.003557
vn 0.398195 0.000411 -0.917301
vn 0.398195 0.000411 -0.917301
vn 0.398195 0.000411 -0.917301
vn 0.398195 0.000411 -0.917301
vn 0.398205 -0.000411 -0.917297
vn 0.398205 -0.000411 -0.917297
vn 0.398205 -0.000411 -0.917297
vn 0.398205 -0.000411 -0.917297
vn 0.006247 -0.999967 0.005231
vn 0.006247 -0.999967 0.005231
vn 0.006247 -0.999967 0.005231
vn 0.006247 -0.999967 0.005231
vn -0.780708 -0.012419 0.624773
vn -0.780708 -0.012419 0.624773
vn -0.780708 -0.012419 0.624773
vn -0.780708 -0.012419 0.624773
vn -0.721995 -0.010793 -0.691814
vn -0.721995 -0.010793 -0.691814
vn -0.721995 -0.010793 -0.691814
vn -0.721995 -0.010793 -0.691814
vn -0.000132 -1.000000 -0.000179
vn -0.000132 -1.000000 -0.000179
vn -0.000132 -1.000000 -0.000179
vn -0.000132 -1.000000 -0.000179
vn 0.290910 -0.000117 0.956750
vn 0.290910 -0.000117 0.956751
vn 0.290910 -0.000117 0.956751
vn 0.290910 -0.000117 0.956750
vn 0.290910 0.000115 0.956751
vn 0.290910 0.000115 0.956751
vn 0.290910 0.000115 0.956751
vn 0.290910 0.000115 0.956751
vn -0.001123 0.999998 -0.001523
vn -0.001123 0.999998 -0.001523
vn -0.001123 0.999998 -0.001523
vn -0.001123 0.999998 -0.001523
vn -0.721997 0.010565 -0.691816
vn -0.721997 0.010565 -0.691816
vn -0.721997 0.010565 -0.691816
vn -0.721997 0.010565 -0.691816
vn -0.003276 0.999957 0.008678
vn -0.003276 0.999957 0.008678
vn -0.003276 0.999957 0.008678
vn -0.003276 0.999957 0.008678
vn 0.999994 0.003360 0.000488
vn 0.999994 0.003360 0.000488
vn 0.999994 0.003360 0.000488
vn 0.999994 0.003360 0.000488
vn 0.999994 -0.003360 0.000422
vn 0.999994 -0.003360 0.000422
vn 0.999994 -0.003360 0.000422
vn 0.999994 -0.003360 0.000422
vn 0.000569 -0.999962 -0.008674
vn 0.000569 -0.999962 -0.008674
vn 0.000569 -0.999962 -0.008674
vn 0.000569 -0.999962 -0.008674
vn -0.999987 -0.004650 0.001914
vn -0.999987 -0.004650 0.001914
vn -0.999987 -0.004650 0.001914
vn -0.999987 -0.004650 0.001914
vn -0.999988 0.004551 0.001985
vn -0.999988 0.004551 0.001985
vn -0.999988 0.004551 0.001985
vn -0.999988 0.004551 0.001985
s off
g pCylinder1
usemtl initialShadingGroup
f 1/17/1 2/18/2 18/19/3 17/20/4
f 2/18/5 3/34/6 19/35/7 18/19/8
f 3/34/9 4/33/10 20/50/11 19/35/12
f 4/33/13 5/32/14 21/49/15 20/50/16
f 5/32/17 6/31/18 22/48/19 21/49/20
f 6/31/21 7/30/22 23/47/23 22/48/24
f 7/30/25 8/29/26 24/46/27 23/47/28
f 8/29/29 9/28/30 25/45/31 24/46/32
f 9/28/33 10/27/34 26/44/35 25/45/36
f 10/27/37 11/26/38 27/43/39 26/44/40
f 11/26/41 12/25/42 28/42/43 27/43/44
f 12/25/45 13/24/46 29/41/47 28/42/48
f 13/24/49 14/23/50 30/40/51 29/41/52
f 14/23/53 15/22/54 31/39/55 30/40/56
f 15/22/57 16/21/58 32/38/59 31/39/60
f 16/21/61 1/17/62 17/20/63 32/38/64
f 17/20/65 18/19/66 34/36/67 33/37/68
f 18/19/69 19/35/70 35/51/71 34/36/72
f 19/35/73 20/50/74 36/64/75 35/51/76
f 20/50/77 21/49/78 37/63/79 36/64/80
f 21/49/81 22/48/82 38/62/83 37/63/84
f 22/48/85 23/47/86 39/61/87 38/62/88
f 23/47/89 24/46/90 40/60/91 39/61/92
f 24/46/93 25/45/94 41/59/95 40/60/96
f 25/45/97 26/44/98 42/58/99 41/59/100
f 26/44/101 27/43/102 43/57/103 42/58/104
f 27/43/105 28/42/106 44/56/107 43/57/108
f 28/42/109 29/41/110 45/55/111 44/56/112
f 29/41/113 30/40/114 46/54/115 45/55/116
f 30/40/117 31/39/118 47/53/119 46/54/120
f 31/39/121 32/38/122 48/52/123 47/53/124
f 32/38/125 17/20/126 33/37/127 48/52/128
f 33/65/129 34/66/130 50/67/131 49/68/132
f 34/66/133 35/69/134 51/70/135 50/67/136
f 35/69/137 36/75/138 52/76/139 51/70/140
f 36/75/141 37/93/142 53/94/143 52/76/144
f 37/93/145 38/104/146 54/95/147 53/94/148
f 38/104/149 39/105/150 55/96/151 54/95/152
f 39/105/153 40/106/154 56/97/155 55/96/156
f 40/106/157 41/107/158 57/98/159 56/97/160
f 41/107/161 42/108/162 58/99/163 57/98/164
f 42/108/165 43/109/166 59/100/167 58/99/168
f 43/109/169 44/111/170 60/112/171 59/100/172
f 44/111/173 45/110/174 61/101/175 60/112/176
f 45/110/177 46/103/178 62/102/179 61/101/180
f 46/103/181 47/91/182 63/92/183 62/102/184
f 47/91/185 48/73/186 64/74/187 63/92/188
f 48/73/189 33/65/190 49/68/191 64/74/192
f 49/68/193 50/67/194 66/71/195 65/72/196
f 50/67/197 51/70/198 67/77/199 66/71/200
f 53/94/201 54/95/202 70/80/203 69/79/204
f 54/95/205 55/96/206 71/81/207 70/80/208
f 55/96/209 56/97/210 72/82/211 71/81/212
f 56/97/213 57/98/214 73/83/215 72/82/216
f 57/98/217 58/99/218 74/84/219 73/83/220
f 58/99/221 59/100/222 75/85/223 74/84/224
f 61/101/225 62/102/226 78/88/227 77/87/228
f 62/102/229 63/92/230 79/89/231 78/88/232
f 63/92/233 64/74/234 80/90/235 79/89/236
f 64/74/237 49/68/238 65/72/239 80/90/240
f 66/71/241 67/77/242 68/78/243 69/79/244 70/80/245 71/81/246 72/82/247 73/83/248 74/84/249 75/85/250 76/86/251 77/87/252 78/88/253 79/89/254 80/90/255 65/72/256
f 2/18/257 1/17/258 16/21/259 15/22/260 14/23/261 13/24/262 12/25/263 11/26/264 10/27/265 9/28/266 8/29/267 7/30/268 6/31/269 5/32/270 4/33/271 3/34/272
f 60/124/273 61/129/274 82/125/275 81/120/276
f 61/1/277 77/2/278 83/3/279 82/4/280
f 77/131/281 76/132/282 84/133/283 83/134/284
f 76/132/285 75/135/286 85/136/287 84/133/288
f 75/9/289 59/10/290 86/11/291 85/12/292
f 59/123/293 60/124/294 81/120/295 86/119/296
f 52/127/297 53/128/298 88/122/299 87/121/300
f 53/15/301 69/16/302 89/14/303 88/13/304
f 69/137/305 68/138/306 90/139/307 89/140/308
f 68/138/309 67/141/310 91/142/311 90/139/312
f 67/7/313 51/8/314 92/6/315 91/5/316
f 51/130/317 52/127/318 87/121/319 92/126/320
f 82/4/321 83/3/322 91/5/323 92/6/324
f 83/113/325 84/114/326 90/115/327 91/116/328
f 84/114/329 85/117/330 89/118/331 90/115/332
f 85/12/333 86/11/334 88/13/335 89/14/336
f 86/119/337 81/120/338 87/121/339 88/122/340
f 81/120/341 82/125/342 92/126/343 87/121/344
