# This file uses centimeters as units for non-parametric coordinates.

mtllib FogataP.mtl
g default
v -0.966663 1.000000 -0.752285
v -0.812579 1.993384 -0.879841
v -1.491813 1.993384 -0.751826
v -1.491813 1.000000 -0.752285
v -1.491813 1.000000 -1.493754
v -0.966663 1.000000 -1.493754
v -1.491813 1.993384 -1.493754
v -0.967565 1.993384 -1.493754
v -1.491813 -0.001699 -1.136432
v -0.966663 -0.001700 -1.136433
v -1.491813 -0.001699 -1.493754
v -0.966663 -0.001700 -1.493754
v 0.946625 1.000000 -0.752285
v 0.805297 1.993384 -0.867471
v 0.946625 1.000000 -1.493754
v 0.950974 1.993384 -1.493754
v 1.491813 1.000000 -0.752285
v 1.491813 1.993384 -0.754354
v 1.491813 1.000000 -1.493754
v 1.491813 1.993384 -1.493754
v 0.946625 0.001700 -1.137023
v 0.946625 0.001700 -1.493754
v 1.491813 0.001700 -1.493754
v 1.491813 0.001700 -1.137023
v 1.053958 1.993384 0.000000
v 1.491813 1.993384 0.000000
v 1.491813 1.000000 -0.000000
v -1.491813 1.000000 -0.000000
v -1.491813 1.993384 0.000000
v -1.063085 1.993384 0.000000
v -0.012013 1.000000 -1.493754
v -0.010009 1.993384 -1.493754
v -0.009909 1.993384 -1.152003
v -1.136271 2.532948 -1.097115
v -0.009502 2.532948 -1.478305
v -1.487128 2.532948 0.000000
v 1.129728 2.532948 -1.079788
v 1.478001 2.532948 0.000000
v -1.136271 2.793535 -1.097115
v -0.023425 2.793535 -1.478305
v -1.487128 2.793535 0.000000
v 1.129728 2.793535 -1.079788
v 1.478001 2.793535 0.000000
v -0.704174 2.793535 -0.807076
v -0.016223 2.793535 -1.042723
v -0.921070 2.793535 0.000000
v 0.696645 2.793535 -0.796364
v 0.911943 2.793535 0.000000
v -0.704174 2.994164 -0.807076
v -0.016223 2.994164 -1.042723
v -0.921070 2.994164 0.000000
v 0.696645 2.994164 -0.796364
v 0.911943 2.994164 0.000000
v -0.966663 1.000000 0.752285
v -0.812579 1.993384 0.879841
v -1.491813 1.993384 0.751826
v -1.491813 1.000000 0.752285
v -1.491813 1.000000 1.493754
v -0.966663 1.000000 1.493754
v -1.491813 1.993384 1.493754
v -0.967565 1.993384 1.493754
v -1.491813 -0.001700 1.136431
v -0.966663 -0.001700 1.136433
v -1.491813 -0.001699 1.493754
v -0.966663 -0.001699 1.493754
v 0.946625 1.000000 0.752285
v 0.805297 1.993384 0.867471
v 0.946625 1.000000 1.493754
v 0.950974 1.993384 1.493754
v 1.491813 1.000000 0.752285
v 1.491813 1.993384 0.754354
v 1.491813 1.000000 1.493754
v 1.491813 1.993384 1.493754
v 0.946625 0.001700 1.137023
v 0.946625 0.001700 1.493754
v 1.491813 0.001700 1.493754
v 1.491813 0.001700 1.137023
v -0.012013 1.000000 1.493754
v -0.010009 1.993384 1.493754
v -0.009909 1.993384 1.152003
v -1.136271 2.532948 1.097115
v -0.009502 2.532948 1.478305
v 1.129728 2.532948 1.079788
v -1.136271 2.793535 1.097115
v -0.023425 2.793535 1.478305
v 1.129728 2.793535 1.079788
v -0.704174 2.793535 0.807076
v -0.016223 2.793535 1.042723
v 0.696645 2.793535 0.796364
v -0.704174 2.994164 0.807076
v -0.016223 2.994164 1.042723
v 0.696645 2.994164 0.796364
v -0.016223 2.994164 0.000000
vt 0.125682 0.338003
vt 0.125682 0.279951
vt 0.231782 0.279951
vt 0.231782 0.337903
vt 0.018693 0.338003
vt 0.018693 0.279951
vt 0.231782 0.443756
vt 0.125682 0.443534
vt 0.231782 0.549987
vt 0.125682 0.549506
vt 0.231782 0.609774
vt 0.125682 0.609774
vt 0.019056 0.609774
vt 0.019056 0.549506
vt 0.829752 0.314515
vt 0.771700 0.314513
vt 0.771705 0.194184
vt 0.829757 0.194186
vt 0.830860 0.314373
vt 0.770592 0.314371
vt 0.770598 0.194325
vt 0.830865 0.194328
vt 0.909987 0.597924
vt 0.888593 0.466902
vt 0.916327 0.462959
vt 0.937550 0.596375
vt 0.838221 0.598242
vt 0.819406 0.500105
vt 0.888531 0.731325
vt 0.916666 0.735264
vt 0.819422 0.698457
vt 0.103481 0.133949
vt 0.103480 0.050735
vt 0.124908 0.050734
vt 0.124910 0.133949
vt 0.103483 0.220304
vt 0.124911 0.220304
vt 0.120094 0.912135
vt 0.226194 0.912235
vt 0.226194 0.970188
vt 0.120094 0.970188
vt 0.120094 0.806604
vt 0.226194 0.806383
vt 0.013105 0.970188
vt 0.013105 0.912135
vt 0.120094 0.700632
vt 0.226194 0.700151
vt 0.120094 0.640364
vt 0.226194 0.640364
vt 0.013469 0.700632
vt 0.013469 0.640364
vt 0.829757 0.194186
vt 0.829752 0.314515
vt 0.771700 0.314513
vt 0.771705 0.194184
vt 0.830860 0.194325
vt 0.830865 0.314370
vt 0.770598 0.314373
vt 0.770592 0.194328
vt 0.591378 0.626833
vt 0.618941 0.628378
vt 0.597737 0.761798
vt 0.570003 0.757858
vt 0.569902 0.493436
vt 0.598037 0.489492
vt 0.519611 0.626526
vt 0.500811 0.724665
vt 0.500798 0.526313
vt 0.124910 0.133948
vt 0.103481 0.133950
vt 0.103474 0.050735
vt 0.124903 0.050734
vt 0.124917 0.220303
vt 0.103488 0.220305
vt 0.603869 0.142454
vt 0.528784 0.124102
vt 0.545917 0.036096
vt 0.603869 0.036096
vt 0.603869 0.250230
vt 0.556476 0.250230
vt 0.440053 0.085087
vt 0.440064 0.036096
vt 0.603869 0.358007
vt 0.528784 0.376358
vt 0.349936 0.125876
vt 0.333833 0.036096
vt 0.603869 0.464365
vt 0.545916 0.464365
vt 0.274046 0.142091
vt 0.274046 0.036096
vt 0.440064 0.464365
vt 0.440053 0.415373
vt 0.322448 0.250230
vt 0.274046 0.250230
vt 0.333833 0.464365
vt 0.349936 0.374585
vt 0.274046 0.358369
vt 0.274046 0.464365
vt 0.866246 0.038337
vt 0.972587 0.120868
vt 0.916249 0.149789
vt 0.850510 0.098768
vt 0.972554 0.282855
vt 0.911802 0.267860
vt 0.728796 0.063254
vt 0.765540 0.114172
vt 0.897211 0.426253
vt 0.860800 0.374440
vt 0.654325 0.204309
vt 0.715077 0.219304
vt 0.764682 0.449827
vt 0.778872 0.389013
vt 0.710827 0.335842
vt 0.654611 0.363816
vt 0.952110 0.841901
vt 0.805744 0.872242
vt 0.784917 0.771775
vt 0.901533 0.771906
vt 0.934469 0.923224
vt 0.826047 0.970186
vt 0.659378 0.902584
vt 0.677963 0.818252
vt 0.707892 0.970193
vt 0.254227 0.758535
vt 0.360327 0.758535
vt 0.360327 0.650692
vt 0.254227 0.650396
vt 0.254227 0.866674
vt 0.360327 0.866377
vt 0.360327 0.544400
vt 0.254227 0.544400
vt 0.254227 0.972669
vt 0.360327 0.972669
vt 0.466953 0.595539
vt 0.466953 0.544400
vt 0.466953 0.972669
vt 0.466953 0.921530
vt 0.360146 0.758535
vt 0.254156 0.758535
vt 0.254156 0.650870
vt 0.360146 0.650804
vt 0.360146 0.866265
vt 0.254156 0.866200
vt 0.254156 0.544622
vt 0.360146 0.544622
vt 0.360146 0.972447
vt 0.254156 0.972447
vt 0.467024 0.544622
vt 0.467024 0.595792
vt 0.467024 0.921277
vt 0.467024 0.972447
vt 0.529315 0.850077
vt 0.635607 0.850077
vt 0.580538 0.957065
vt 0.529315 0.957065
vt 0.385559 0.751465
vt 0.491851 0.751465
vt 0.491851 0.858091
vt 0.440712 0.858091
vt 0.680046 0.622456
vt 0.694196 0.465610
vt 0.666373 0.463416
vt 0.652254 0.622454
vt 0.753097 0.622462
vt 0.764323 0.493320
vt 0.666348 0.781494
vt 0.694171 0.779304
vt 0.764303 0.751605
vt 0.694492 0.464965
vt 0.680160 0.622456
vt 0.652875 0.622454
vt 0.666817 0.462746
vt 0.763703 0.493162
vt 0.752403 0.622461
vt 0.694470 0.779949
vt 0.666795 0.782164
vt 0.763685 0.751761
vt 0.171507 0.138318
vt 0.171507 0.021703
vt 0.192935 0.021703
vt 0.192935 0.138318
vt 0.192935 0.254934
vt 0.171507 0.254934
vt 0.192788 0.021573
vt 0.192807 0.138317
vt 0.171635 0.138320
vt 0.171615 0.021576
vt 0.192827 0.255060
vt 0.171654 0.255064
vt 0.529315 0.850077
vt 0.529315 0.957065
vt 0.580538 0.957065
vt 0.635607 0.850077
vt 0.385559 0.751465
vt 0.440712 0.858090
vt 0.491851 0.858090
vt 0.491851 0.751465
vn 1.000000 0.000000 0.000000
vn 1.000000 0.000000 0.000000
vn 1.000000 0.000000 0.000000
vn 1.000000 0.000000 0.000000
vn -1.000000 -0.000000 -0.000000
vn -1.000000 -0.000000 -0.000000
vn -1.000000 -0.000000 -0.000000
vn -1.000000 -0.000000 -0.000000
vn 0.000000 -0.000000 -1.000000
vn 0.000000 -0.000000 -1.000000
vn 0.000000 -0.000000 -1.000000
vn 0.000000 -0.000000 -1.000000
vn -1.000000 -0.000000 -0.000000
vn -1.000000 -0.000000 -0.000000
vn -1.000000 -0.000000 -0.000000
vn -1.000000 -0.000000 -0.000000
vn -0.000000 1.000000 0.000000
vn -0.000000 1.000000 0.000000
vn -0.000000 1.000000 0.000000
vn -0.000000 1.000000 0.000000
vn 1.000000 0.000000 0.000000
vn 1.000000 0.000000 0.000000
vn 1.000000 0.000000 0.000000
vn 1.000000 0.000000 0.000000
vn 0.000001 -0.358068 0.933695
vn 0.000001 -0.358068 0.933695
vn 0.000001 -0.358068 0.933695
vn 0.000001 -0.358068 0.933695
vn -1.000000 0.000000 -0.000000
vn -1.000000 0.000000 -0.000000
vn -1.000000 0.000000 -0.000000
vn -1.000000 0.000000 -0.000000
vn 0.000000 -0.000000 -1.000000
vn 0.000000 -0.000000 -1.000000
vn 0.000000 -0.000000 -1.000000
vn 0.000000 -0.000000 -1.000000
vn 1.000000 -0.000000 0.000000
vn 1.000000 -0.000000 0.000000
vn 1.000000 -0.000000 0.000000
vn 1.000000 -0.000000 0.000000
vn 0.000000 0.000000 -1.000000
vn 0.000000 0.000000 -1.000000
vn 0.000000 0.000000 -1.000000
vn 0.000000 0.000000 -1.000000
vn -0.000000 1.000000 -0.000000
vn -0.000000 1.000000 -0.000000
vn -0.000000 1.000000 -0.000000
vn -0.000000 1.000000 -0.000000
vn 0.000000 0.000000 -1.000000
vn 0.000000 0.000000 -1.000000
vn 0.000000 0.000000 -1.000000
vn 0.000000 0.000000 -1.000000
vn 0.000000 1.000000 0.000000
vn 0.000000 1.000000 0.000000
vn 0.000000 1.000000 0.000000
vn 0.000000 1.000000 0.000000
vn -1.000000 -0.000000 -0.000000
vn -1.000000 -0.000000 -0.000000
vn -1.000000 -0.000000 -0.000000
vn -1.000000 -0.000000 -0.000000
vn 0.000000 0.000000 -1.000000
vn 0.000000 0.000000 -1.000000
vn 0.000000 0.000000 -1.000000
vn 0.000000 0.000000 -1.000000
vn 1.000000 0.000000 0.000000
vn 1.000000 0.000000 0.000000
vn 1.000000 0.000000 0.000000
vn 1.000000 0.000000 0.000000
vn 0.000000 -0.359611 0.933102
vn 0.000000 -0.359611 0.933102
vn 0.000000 -0.359611 0.933102
vn 0.000000 -0.359611 0.933102
vn -0.000000 1.000000 -0.000000
vn -0.000000 1.000000 -0.000000
vn -0.000000 1.000000 -0.000000
vn -0.000000 1.000000 -0.000000
vn 0.000000 1.000000 0.000000
vn 0.000000 1.000000 0.000000
vn 0.000000 1.000000 0.000000
vn 0.000000 1.000000 0.000000
vn 0.000000 0.000000 -1.000000
vn 0.000000 0.000000 -1.000000
vn -0.000000 1.000000 0.000000
vn -0.000000 1.000000 0.000000
vn -0.278262 -0.497292 -0.821749
vn -0.278262 -0.497292 -0.821749
vn -0.278262 -0.497292 -0.821749
vn -0.278262 -0.497292 -0.821749
vn 0.798500 -0.601995 -0.000000
vn 0.775602 -0.584731 -0.237761
vn 0.775602 -0.584731 -0.237761
vn 0.798500 -0.601995 -0.000000
vn -0.775852 -0.585112 -0.236003
vn -0.798405 -0.602121 0.000000
vn -0.798405 -0.602121 0.000000
vn -0.775852 -0.585112 -0.236004
vn 0.286565 -0.495525 -0.819961
vn 0.286565 -0.495525 -0.819961
vn 0.286565 -0.495525 -0.819961
vn 0.286565 -0.495525 -0.819961
vn -0.322236 -0.008608 -0.946620
vn -0.322236 -0.008608 -0.946620
vn -0.322236 -0.008608 -0.946620
vn -0.322236 -0.008608 -0.946620
vn 1.000000 0.000000 0.000000
vn 0.951720 0.000000 -0.306966
vn 0.951720 0.000000 -0.306966
vn 1.000000 0.000000 0.000000
vn -0.952479 -0.000000 -0.304603
vn -1.000000 -0.000000 -0.000000
vn -1.000000 -0.000000 -0.000000
vn -0.952479 -0.000000 -0.304603
vn 0.328391 0.008773 -0.944501
vn 0.328391 0.008773 -0.944501
vn 0.328391 0.008773 -0.944501
vn 0.328391 0.008773 -0.944501
vn 0.000000 1.000000 0.000000
vn 0.000000 1.000000 0.000000
vn 0.000000 1.000000 0.000000
vn 0.000000 1.000000 0.000000
vn -0.000000 1.000000 0.000000
vn -0.000000 1.000000 0.000000
vn -0.000000 1.000000 0.000000
vn -0.000000 1.000000 0.000000
vn -0.000000 1.000000 0.000000
vn -0.000000 1.000000 0.000000
vn -0.000000 1.000000 0.000000
vn -0.000000 1.000000 0.000000
vn -0.000000 1.000000 0.000000
vn -0.000000 1.000000 0.000000
vn -0.000000 1.000000 0.000000
vn -0.000000 1.000000 0.000000
vn -0.324052 -0.000000 -0.946039
vn -0.324052 -0.000000 -0.946039
vn -0.324052 -0.000000 -0.946039
vn -0.324052 -0.000000 -0.946039
vn 1.000000 0.000000 0.000000
vn 0.965344 0.000000 -0.260982
vn 0.965344 0.000000 -0.260982
vn 1.000000 0.000000 0.000000
vn -0.965734 -0.000000 -0.259534
vn -1.000000 -0.000000 -0.000000
vn -1.000000 -0.000000 -0.000000
vn -0.965734 -0.000000 -0.259534
vn 0.326633 0.000000 -0.945151
vn 0.326633 0.000000 -0.945151
vn 0.326633 0.000000 -0.945151
vn 0.326633 0.000000 -0.945151
vn 1.000000 0.000000 0.000000
vn 1.000000 0.000000 0.000000
vn -1.000000 -0.000000 -0.000000
vn -1.000000 -0.000000 -0.000000
vn 0.000000 0.000000 1.000000
vn 0.000000 0.000000 1.000000
vn 0.000000 0.000000 1.000000
vn 0.000000 0.000000 1.000000
vn -1.000000 -0.000000 -0.000000
vn -1.000000 -0.000000 -0.000000
vn -1.000000 -0.000000 -0.000000
vn -1.000000 -0.000000 -0.000000
vn -0.000000 1.000000 0.000000
vn -0.000000 1.000000 0.000000
vn -0.000000 1.000000 0.000000
vn -0.000000 1.000000 0.000000
vn 1.000000 0.000000 -0.000000
vn 1.000000 0.000000 -0.000000
vn 1.000000 0.000000 -0.000000
vn 1.000000 0.000000 -0.000000
vn 0.000001 -0.358068 -0.933696
vn 0.000001 -0.358068 -0.933696
vn 0.000001 -0.358068 -0.933696
vn 0.000001 -0.358068 -0.933696
vn -1.000000 0.000000 -0.000000
vn -1.000000 0.000000 -0.000000
vn -1.000000 0.000000 -0.000000
vn -1.000000 0.000000 -0.000000
vn 0.000000 0.000000 1.000000
vn 0.000000 0.000000 1.000000
vn 0.000000 0.000000 1.000000
vn 0.000000 0.000000 1.000000
vn 1.000000 -0.000000 0.000000
vn 1.000000 -0.000000 0.000000
vn 1.000000 -0.000000 0.000000
vn 1.000000 -0.000000 0.000000
vn 0.000000 -0.000000 1.000000
vn 0.000000 -0.000000 1.000000
vn 0.000000 -0.000000 1.000000
vn 0.000000 -0.000000 1.000000
vn -0.000000 1.000000 -0.000000
vn -0.000000 1.000000 -0.000000
vn -0.000000 1.000000 -0.000000
vn -0.000000 1.000000 -0.000000
vn -0.000000 0.000000 1.000000
vn -0.000000 0.000000 1.000000
vn -0.000000 0.000000 1.000000
vn -0.000000 0.000000 1.000000
vn 0.000000 1.000000 0.000000
vn 0.000000 1.000000 0.000000
vn 0.000000 1.000000 0.000000
vn 0.000000 1.000000 0.000000
vn -1.000000 -0.000000 -0.000000
vn -1.000000 -0.000000 -0.000000
vn -1.000000 -0.000000 -0.000000
vn -1.000000 -0.000000 -0.000000
vn 0.000000 0.000000 1.000000
vn 0.000000 0.000000 1.000000
vn 0.000000 0.000000 1.000000
vn 0.000000 0.000000 1.000000
vn 1.000000 0.000000 0.000000
vn 1.000000 0.000000 0.000000
vn 1.000000 0.000000 0.000000
vn 1.000000 0.000000 0.000000
vn 0.000000 -0.359611 -0.933102
vn 0.000000 -0.359611 -0.933102
vn 0.000000 -0.359611 -0.933102
vn 0.000000 -0.359611 -0.933102
vn -0.000000 1.000000 0.000000
vn -0.000000 1.000000 0.000000
vn 0.000000 1.000000 0.000000
vn 0.000000 1.000000 0.000000
vn 0.000000 -0.000000 1.000000
vn 0.000000 -0.000000 1.000000
vn -0.000000 1.000000 0.000000
vn -0.000000 1.000000 0.000000
vn -0.278262 -0.497292 0.821749
vn -0.278262 -0.497292 0.821749
vn -0.278262 -0.497292 0.821749
vn -0.278262 -0.497292 0.821749
vn 0.775602 -0.584731 0.237761
vn 0.775602 -0.584731 0.237761
vn -0.775852 -0.585112 0.236003
vn -0.775852 -0.585112 0.236003
vn 0.286565 -0.495525 0.819961
vn 0.286565 -0.495525 0.819961
vn 0.286565 -0.495525 0.819961
vn 0.286565 -0.495525 0.819961
vn -0.322236 -0.008608 0.946620
vn -0.322236 -0.008608 0.946620
vn -0.322236 -0.008608 0.946620
vn -0.322236 -0.008608 0.946620
vn 0.951720 0.000000 0.306966
vn 0.951720 0.000000 0.306966
vn -0.952479 -0.000000 0.304603
vn -0.952479 -0.000000 0.304603
vn 0.328391 0.008773 0.944501
vn 0.328391 0.008773 0.944501
vn 0.328391 0.008773 0.944501
vn 0.328391 0.008773 0.944501
vn -0.000000 1.000000 0.000000
vn -0.000000 1.000000 0.000000
vn -0.000000 1.000000 0.000000
vn -0.000000 1.000000 0.000000
vn -0.000000 1.000000 0.000000
vn -0.000000 1.000000 0.000000
vn -0.000000 1.000000 0.000000
vn -0.000000 1.000000 0.000000
vn -0.000000 1.000000 -0.000000
vn -0.000000 1.000000 -0.000000
vn -0.000000 1.000000 -0.000000
vn -0.000000 1.000000 -0.000000
vn -0.324052 -0.000000 0.946039
vn -0.324052 -0.000000 0.946039
vn -0.324052 -0.000000 0.946039
vn -0.324052 -0.000000 0.946039
vn 0.965344 0.000000 0.260982
vn 0.965344 0.000000 0.260982
vn -0.965734 -0.000000 0.259534
vn -0.965734 -0.000000 0.259534
vn 0.326633 0.000000 0.945151
vn 0.326633 0.000000 0.945151
vn 0.326633 0.000000 0.945151
vn 0.326633 0.000000 0.945151
vn -0.000000 1.000000 0.000000
vn -0.000000 1.000000 -0.000000
vn -0.000000 1.000000 0.000000
vn -0.000000 1.000000 0.000000
vn -0.000000 1.000000 -0.000000
vn -0.000000 1.000000 0.000000
vn -0.000000 1.000000 0.000000
vn -0.000000 1.000000 -0.000000
vn -0.000000 1.000000 -0.000000
s 1
g pCube1
usemtl initialShadingGroup
f 26/124/1 27/125/2 17/126/3 18/127/4
s 2
f 28/138/5 29/139/6 3/140/7 4/141/8
s off
f 6/1/9 5/2/10 7/3/11 8/4/12
f 4/141/13 3/140/14 7/144/15 5/145/16
f 3/75/17 2/76/18 8/77/19 7/78/20
f 18/127/21 17/126/22 19/130/23 20/131/24
f 1/15/25 4/16/26 9/17/27 10/18/28
f 4/141/29 5/145/30 11/148/31 9/149/32
f 5/2/33 6/1/34 12/5/35 11/6/36
f 6/152/37 1/153/38 10/154/39 12/155/40
s 3
f 31/8/41 32/7/42 16/9/43 15/10/44
s 4
f 32/82/45 33/81/46 14/85/47 16/86/48
s off
f 15/10/49 16/9/50 20/11/51 19/12/52
f 16/86/53 14/85/54 18/89/55 20/90/56
f 13/156/57 15/157/58 22/158/59 21/159/60
f 15/10/61 19/12/62 23/13/63 22/14/64
f 19/130/65 17/126/66 24/134/67 23/135/68
f 17/19/69 13/20/70 21/21/71 24/22/72
s 5
f 29/79/73 30/80/74 2/76/75 3/75/76
s 6
f 18/89/77 14/85/78 25/93/79 26/94/80
s 3
f 6/1/81 8/4/82 32/7/42 31/8/41
s 4
f 8/77/83 2/76/84 33/81/46 32/82/45
s off
f 33/27/85 2/28/86 34/24/87 35/23/88
s 7
f 25/164/89 14/165/90 37/161/91 38/160/92
s 8
f 2/173/93 30/174/94 36/170/95 34/169/96
s off
f 14/31/97 33/27/98 35/23/99 37/29/100
f 35/23/101 34/24/102 39/25/103 40/26/104
s 9
f 38/160/105 37/161/106 42/162/107 43/163/108
s 10
f 34/169/109 36/170/110 41/171/111 39/172/112
s off
f 37/29/113 35/23/114 40/26/115 42/30/116
f 40/99/117 39/100/118 44/101/119 45/102/120
s 11
f 43/109/121 42/105/122 47/106/123 48/110/124
s 12
f 39/100/125 41/103/126 46/104/127 44/101/128
s off
f 42/105/129 40/99/130 45/102/131 47/106/132
f 45/32/133 44/33/134 49/34/135 50/35/136
s 13
f 48/178/137 47/179/138 52/180/139 53/181/140
s 14
f 44/184/141 46/185/142 51/186/143 49/187/144
s off
f 47/36/145 45/32/146 50/35/147 52/37/148
s 1
f 26/124/1 71/128/149 70/129/150 27/125/2
s 2
f 28/138/5 57/142/151 56/143/152 29/139/6
s off
f 59/38/153 61/39/154 60/40/155 58/41/156
f 57/142/157 58/146/158 60/147/159 56/143/160
f 56/83/161 60/87/162 61/88/163 55/84/164
f 71/128/165 73/132/166 72/133/167 70/129/168
f 54/52/169 63/53/170 62/54/171 57/55/172
f 57/142/173 62/150/174 64/151/175 58/146/176
f 58/41/177 64/44/178 65/45/179 59/38/180
f 59/190/181 65/191/182 63/192/183 54/193/184
s 15
f 78/42/185 68/46/186 69/47/187 79/43/188
s 16
f 79/91/189 69/95/190 67/96/191 80/92/192
s off
f 68/46/193 72/48/194 73/49/195 69/47/196
f 69/95/197 73/98/198 71/97/199 67/96/200
f 66/194/201 74/195/202 75/196/203 68/197/204
f 68/46/205 75/50/206 76/51/207 72/48/208
f 72/133/209 76/136/210 77/137/211 70/129/212
f 70/56/213 77/57/214 74/58/215 66/59/216
s 5
f 29/79/73 56/83/217 55/84/218 30/80/74
s 6
f 71/97/219 26/94/80 25/93/79 67/96/220
s 15
f 59/38/221 78/42/185 79/43/188 61/39/222
s 16
f 61/88/223 79/91/189 80/92/192 55/84/224
s off
f 80/66/225 82/60/226 81/63/227 55/67/228
s 7
f 25/164/89 38/160/92 83/167/229 67/168/230
s 8
f 55/177/231 81/175/232 36/170/95 30/174/94
s off
f 67/68/233 83/64/234 82/60/235 80/66/236
f 82/60/237 85/61/238 84/62/239 81/63/240
s 9
f 38/160/105 43/163/108 86/166/241 83/167/242
s 10
f 81/175/243 84/176/244 41/171/111 36/170/110
s off
f 83/64/245 86/65/246 85/61/247 82/60/248
f 85/111/249 88/112/250 87/108/251 84/107/252
s 11
f 43/109/121 48/110/124 89/113/253 86/114/254
s 12
f 84/107/255 87/108/256 46/104/127 41/103/126
s off
f 86/114/257 89/113/258 88/112/259 85/111/260
f 88/69/261 91/70/262 90/71/263 87/72/264
s 13
f 48/178/137 53/181/140 92/182/265 89/183/266
s 14
f 87/188/267 90/189/268 51/186/143 46/185/142
s off
f 89/73/269 92/74/270 91/70/271 88/69/272
s 17
f 50/115/273 93/116/274 53/117/275 52/118/276
f 53/117/275 93/116/274 91/121/277 92/122/278
f 50/115/273 49/119/279 51/120/280 93/116/274
f 91/121/277 93/116/274 51/120/280 90/123/281
