# This file uses centimeters as units for non-parametric coordinates.

mtllib Divisores.mtl
g default
v -64.098557 23.352682 72.699638
v -64.098557 0.169718 72.699638
v -61.863075 23.352682 69.286964
v -88.798363 28.482252 69.286964
v -88.798363 28.482252 72.699638
v -88.798363 0.169718 72.699638
v -61.863075 17.492657 69.286964
v -88.798363 18.434036 69.286964
v -3.578059 23.597233 -49.979652
v -3.578059 0.414268 -49.979652
v 0.659997 23.597233 -49.979652
v 0.659997 0.414268 -49.979652
v 0.659997 28.726803 -74.679459
v 0.659997 0.414268 -74.679459
v -3.578059 28.726803 -74.679459
v -3.578059 0.414268 -74.679459
v 64.914948 23.352682 72.088936
v 64.914948 0.169718 72.088936
v 62.679466 23.352682 68.676262
v 89.614754 28.482252 68.676262
v 89.614754 28.482252 72.088936
v 89.614754 0.169718 72.088936
v 62.679466 17.492657 68.676262
v 89.614754 18.434036 68.676262
vt 0.189473 0.796359
vt 0.189473 0.446465
vt 0.494720 0.446465
vt 0.494720 0.732966
vt 0.511239 0.927478
vt 0.173357 0.901810
vt 0.165237 0.829847
vt 0.497316 0.804083
vt 0.710947 0.386174
vt 0.710947 0.077353
vt 0.753615 0.049403
vt 0.753615 0.386174
vt 0.906622 0.335904
vt 0.906622 0.049403
vt 0.948797 0.049403
vt 0.948797 0.335904
vt 0.382608 0.335904
vt 0.382608 0.049403
vt 0.687855 0.049403
vt 0.687855 0.399297
vt 0.050843 0.399297
vt 0.050843 0.049403
vt 0.356090 0.049403
vt 0.356090 0.335904
vt 0.835687 0.357889
vt 0.835687 0.049403
vt 0.878309 0.049403
vt 0.878309 0.357889
vt 0.555502 0.800586
vt 0.555502 0.450692
vt 0.860749 0.450692
vt 0.860749 0.737193
vt 0.775030 0.386174
vt 0.775030 0.077353
vt 0.817699 0.049403
vt 0.817699 0.386174
vt 0.904614 0.956059
vt 0.566731 0.930390
vt 0.558611 0.858427
vt 0.890690 0.832663
vn 0.000000 0.000000 1.000000
vn 0.000000 0.000000 1.000000
vn 0.000000 0.000000 1.000000
vn 0.000000 0.000000 1.000000
vn 0.194480 0.978836 0.063697
vn 0.194480 0.978836 0.063697
vn 0.194480 0.978836 0.063697
vn 0.194480 0.978836 0.063697
vn -0.000000 0.000000 -1.000000
vn -0.000000 0.000000 -1.000000
vn -0.000000 0.000000 -1.000000
vn -0.000000 0.000000 -1.000000
vn 0.000000 0.000000 1.000000
vn 0.000000 0.000000 1.000000
vn 0.000000 0.000000 1.000000
vn 0.000000 0.000000 1.000000
vn 1.000000 0.000000 0.000000
vn 1.000000 0.000000 0.000000
vn 1.000000 0.000000 0.000000
vn 1.000000 0.000000 0.000000
vn -1.000000 0.000000 0.000000
vn -1.000000 0.000000 0.000000
vn -1.000000 0.000000 0.000000
vn -1.000000 0.000000 0.000000
vn 0.000000 0.979109 0.203338
vn 0.000000 0.979109 0.203338
vn 0.000000 0.979109 0.203338
vn 0.000000 0.979109 0.203338
vn 0.000000 0.000000 1.000000
vn 0.000000 0.000000 1.000000
vn 0.000000 0.000000 1.000000
vn 0.000000 0.000000 1.000000
vn -0.194481 0.978836 0.063697
vn -0.194481 0.978836 0.063697
vn -0.194481 0.978836 0.063697
vn -0.194480 0.978836 0.063697
vn 0.000000 0.000000 -1.000000
vn 0.000000 0.000000 -1.000000
vn 0.000000 0.000000 -1.000000
vn 0.000000 0.000000 -1.000000
s off
g pCube61
usemtl initialShadingGroup
f 5/1/1 6/2/2 2/3/3 1/4/4
f 5/9/5 1/10/6 3/11/7 4/12/8
f 4/5/9 3/6/10 7/7/11 8/8/12
f 9/13/13 10/14/14 12/15/15 11/16/16
f 11/17/17 12/18/18 14/19/19 13/20/20
f 15/21/21 16/22/22 10/23/23 9/24/24
f 15/25/25 9/26/26 11/27/27 13/28/28
f 21/29/29 17/32/30 18/31/31 22/30/32
f 21/33/33 20/36/34 19/35/35 17/34/36
f 20/37/37 24/40/38 23/39/39 19/38/40
