# This file uses centimeters as units for non-parametric coordinates.

mtllib Pared Cesar.mtl
g default
v 60.962012 -0.011585 -46.983638
v 60.962012 20.988417 -46.983638
v 60.962012 20.988417 -49.983638
v -59.970079 -0.011585 -46.983638
v -59.970079 20.988417 -49.983638
v -59.970079 20.988417 -46.983638
v 60.962012 19.973826 -46.983638
v 60.962012 19.973826 -49.983638
v -59.970079 19.973826 -49.983638
v -59.970079 19.973826 -46.983638
v 60.962012 19.973826 -46.012817
v 60.962012 20.988417 -46.012817
v -59.970079 19.973826 -46.012817
v -59.970079 20.988417 -46.012817
v 30.728988 -0.011585 -46.983638
v 30.728988 19.973826 -46.983638
v 30.728988 19.973826 -46.012817
v 30.728988 20.988417 -46.012817
v 30.728988 20.988417 -46.983638
v 30.728988 20.988417 -49.983638
v 30.728988 19.973826 -49.983638
v 0.495997 -0.011585 -46.983638
v 0.495995 19.973826 -46.983638
v 0.495995 19.973826 -46.012817
v 0.495997 20.988417 -46.012813
v 0.495997 20.988417 -46.983638
v 0.495997 20.988417 -49.983638
v 0.495997 19.973826 -49.983638
v -29.737041 -0.011585 -46.983638
v -29.737043 19.973826 -46.983638
v -29.737043 19.973826 -46.012817
v -29.737041 20.988417 -46.012813
v -29.737041 20.988417 -46.983638
v -29.737041 20.988417 -49.983638
v -29.737041 19.973826 -49.983638
vt 0.551951 0.037325
vt 0.551951 0.268662
vt 0.544188 0.268662
vt 0.544188 0.037325
vt 0.551951 0.499998
vt 0.544188 0.499998
vt 0.551951 0.731334
vt 0.544188 0.731334
vt 0.551951 0.962671
vt 0.544188 0.962671
vt 0.221425 0.962675
vt 0.221425 0.731337
vt 0.374349 0.731337
vt 0.374349 0.962675
vt 0.221425 0.500000
vt 0.374349 0.500000
vt 0.221425 0.268663
vt 0.374349 0.268663
vt 0.221425 0.037325
vt 0.374349 0.037325
vt 0.489433 0.962674
vt 0.481670 0.962674
vt 0.481670 0.731337
vt 0.489433 0.731337
vt 0.481670 0.499999
vt 0.489433 0.499999
vt 0.481670 0.268662
vt 0.489433 0.268662
vt 0.481670 0.037325
vt 0.489433 0.037325
vt 0.432266 0.962675
vt 0.409310 0.962675
vt 0.409310 0.731337
vt 0.432266 0.731337
vt 0.401882 0.962675
vt 0.401882 0.731337
vt 0.409310 0.500000
vt 0.432266 0.500000
vt 0.401882 0.500000
vt 0.409310 0.268663
vt 0.432266 0.268663
vt 0.401882 0.268663
vt 0.409310 0.037325
vt 0.432266 0.037325
vt 0.401882 0.037325
vt 0.613212 0.037325
vt 0.620641 0.037325
vt 0.620641 0.268662
vt 0.613212 0.268662
vt 0.620641 0.500000
vt 0.613212 0.500000
vt 0.620641 0.731337
vt 0.613212 0.731337
vt 0.620641 0.962674
vt 0.613212 0.962674
vn -0.000000 0.000000 -1.000000
vn -0.000000 0.000000 -1.000000
vn -0.000000 0.000000 -1.000000
vn -0.000000 0.000000 -1.000000
vn 0.000000 1.000000 -0.000000
vn 0.000000 1.000000 -0.000000
vn 0.000000 1.000000 -0.000000
vn 0.000000 1.000000 -0.000000
vn 0.000000 0.000000 1.000000
vn 0.000000 0.000000 1.000000
vn 0.000000 0.000000 1.000000
vn 0.000000 0.000000 1.000000
vn -0.000000 -0.000004 1.000000
vn -0.000000 -0.000004 1.000000
vn -0.000000 -0.000004 1.000000
vn -0.000000 -0.000004 1.000000
vn 1.000000 0.000000 -0.000000
vn 1.000000 0.000000 -0.000000
vn 1.000000 0.000000 -0.000000
vn 1.000000 0.000000 -0.000000
vn -0.000000 1.000000 0.000000
vn -0.000000 1.000000 0.000000
vn -0.000000 1.000000 0.000000
vn -0.000000 1.000000 0.000000
vn 0.000000 -1.000000 0.000000
vn 0.000000 -1.000000 0.000000
vn 0.000000 -1.000000 0.000000
vn 0.000000 -1.000000 0.000000
vn -1.000000 0.000000 0.000000
vn -1.000000 0.000000 0.000000
vn -1.000000 0.000000 0.000000
vn -1.000000 0.000000 0.000000
vn 0.000000 0.000000 1.000000
vn 0.000000 0.000000 1.000000
vn 0.000000 0.000000 1.000000
vn 0.000000 0.000000 1.000000
vn 0.000000 -1.000000 0.000000
vn 0.000000 -1.000000 0.000000
vn 0.000000 -1.000000 0.000000
vn 0.000000 -1.000000 0.000000
vn 0.000000 -0.000002 1.000000
vn 0.000000 -0.000002 1.000000
vn 0.000000 0.000000 1.000000
vn 0.000000 0.000000 1.000000
vn 0.000000 1.000000 -0.000000
vn 0.000000 1.000000 -0.000000
vn 0.000000 1.000000 -0.000000
vn 0.000000 1.000000 -0.000000
vn 0.000000 1.000000 -0.000000
vn 0.000000 1.000000 -0.000000
vn 0.000000 1.000000 -0.000000
vn 0.000000 1.000000 -0.000000
vn -0.000000 0.000000 -1.000000
vn -0.000000 0.000000 -1.000000
vn -0.000000 0.000000 -1.000000
vn -0.000000 0.000000 -1.000000
vn 0.000000 0.000000 1.000000
vn 0.000000 0.000000 1.000000
vn 0.000000 -1.000000 0.000000
vn 0.000000 -1.000000 0.000000
vn 0.000000 -0.000004 1.000000
vn 0.000000 -0.000004 1.000000
vn 0.000000 1.000000 -0.000000
vn 0.000000 1.000000 -0.000000
vn 0.000000 1.000000 -0.000000
vn 0.000000 1.000000 -0.000000
vn -0.000000 0.000000 -1.000000
vn -0.000000 0.000000 -1.000000
s 1
g pCube40
usemtl initialShadingGroup
f 5/1/1 34/2/2 35/3/3 9/4/4
s 2
f 5/31/5 6/32/6 33/33/7 34/34/8
s 3
f 4/11/9 29/12/10 30/13/11 10/14/12
s 4
f 14/21/13 13/22/14 31/23/15 32/24/16
s off
f 7//17 2//18 12//19 11//20
s 5
f 14/35/21 32/36/22 33/33/23 6/32/24
s 6
f 13/46/25 10/47/26 30/48/27 31/49/28
s off
f 6//29 10//30 13//31 14//32
s 3
f 16/18/33 15/17/34 1/19/35 7/20/36
s 6
f 17/53/37 16/52/38 7/54/39 11/55/40
s 4
f 18/28/41 17/27/42 11/29/43 12/30/44
s 5
f 19/40/45 18/42/46 12/45/47 2/43/48
s 2
f 20/41/49 19/40/50 2/43/51 3/44/52
s 1
f 21/8/53 20/7/54 3/9/55 8/10/56
s 3
f 23/16/57 22/15/58 15/17/34 16/18/33
s 6
f 24/51/59 23/50/60 16/52/38 17/53/37
s 4
f 25/26/61 24/25/62 17/27/42 18/28/41
s 5
f 26/37/63 25/39/64 18/42/46 19/40/45
s 2
f 27/38/65 26/37/66 19/40/50 20/41/49
s 1
f 28/6/67 27/5/68 20/7/54 21/8/53
s 3
f 30/13/11 29/12/10 22/15/58 23/16/57
s 6
f 31/49/28 30/48/27 23/50/60 24/51/59
s 4
f 32/24/16 31/23/15 24/25/62 25/26/61
s 5
f 33/33/23 32/36/22 25/39/64 26/37/63
s 2
f 34/34/8 33/33/7 26/37/66 27/38/65
s 1
f 35/3/3 34/2/2 27/5/68 28/6/67
