# This file uses centimeters as units for non-parametric coordinates.

mtllib Techo Cesar.mtl
g default
v 2.382806 39.069771 -46.732231
v 2.382806 41.988285 -46.732231
v 2.382806 41.988285 -78.434516
v 65.372125 41.988285 -78.434516
v 2.382806 39.069771 -78.434516
v 65.372125 39.069771 -78.434516
v 56.032068 39.069771 -46.732231
v 56.032068 39.069771 -78.434516
v 56.032068 41.988285 -78.434516
v 56.032068 41.988285 -46.732231
v 2.382806 41.988285 -49.911689
v 56.032068 41.988285 -49.911689
v 65.372125 41.988285 -49.911689
v 65.372125 39.069771 -49.911689
v 56.032068 39.069771 -49.911689
v 2.382806 39.069771 -49.911689
vt 0.983411 0.850732
vt 0.942911 0.850732
vt 0.942911 0.454925
vt 0.983411 0.454925
vt 0.942911 0.454925
vt 0.942911 0.059119
vt 0.983411 0.059119
vt 0.983411 0.454925
vt 0.942911 0.014998
vt 0.983411 0.014998
vt 0.414152 0.059119
vt 0.414152 0.014998
vt 0.454652 0.014998
vt 0.454652 0.059119
vt 0.897811 0.144608
vt 0.502005 0.144608
vt 0.502005 0.014998
vt 0.897811 0.014998
vt 0.502005 0.889090
vt 0.897812 0.889090
vt 0.457884 0.889090
vt 0.457884 0.144608
vt 0.412395 0.014998
vt 0.412395 0.144608
vt 0.016589 0.144608
vt 0.016589 0.014998
vt 0.016589 0.889090
vt 0.412395 0.889090
vt 0.456516 0.144608
vt 0.456516 0.889090
vt 0.899179 0.759480
vt 0.899179 0.014998
vt 0.939679 0.014998
vt 0.939679 0.759480
vt 0.939679 0.759480
vt 0.939679 0.889090
vt 0.899179 0.889090
vt 0.899179 0.759480
vn 0.000000 1.000000 0.000000
vn 0.000000 1.000000 0.000000
vn 0.000000 1.000000 0.000000
vn 0.000000 1.000000 0.000000
vn 0.000000 -1.000000 0.000000
vn 0.000000 -1.000000 0.000000
vn 0.000000 -1.000000 0.000000
vn 0.000000 -1.000000 0.000000
vn 1.000000 0.000000 0.000000
vn 1.000000 0.000000 0.000000
vn 1.000000 0.000000 0.000000
vn 1.000000 0.000000 0.000000
vn -1.000000 0.000000 0.000000
vn -1.000000 0.000000 0.000000
vn -1.000000 0.000000 0.000000
vn -1.000000 0.000000 0.000000
vn 0.000000 -1.000000 0.000000
vn 0.000000 -1.000000 0.000000
vn 0.000000 1.000000 0.000000
vn 0.000000 1.000000 0.000000
vn 0.000000 0.000000 1.000000
vn 0.000000 0.000000 1.000000
vn 0.000000 0.000000 1.000000
vn 0.000000 0.000000 1.000000
vn 0.000000 1.000000 0.000000
vn 0.000000 1.000000 0.000000
vn 0.000000 -1.000000 0.000000
vn 0.000000 -1.000000 0.000000
vn -1.000000 0.000000 0.000000
vn -1.000000 0.000000 0.000000
vn 0.000000 0.000000 1.000000
vn 0.000000 0.000000 1.000000
vn 0.000000 0.000000 1.000000
vn 0.000000 0.000000 1.000000
vn 1.000000 0.000000 0.000000
vn 1.000000 0.000000 0.000000
vn 1.000000 0.000000 0.000000
vn 1.000000 0.000000 0.000000
s 1
g pCube50
usemtl initialShadingGroup
f 9/15/1 12/16/2 13/17/3 4/18/4
s 2
f 14/23/5 15/24/6 8/25/7 6/26/8
s off
f 13/1/9 14/2/10 6/3/11 4/4/12
s 3
f 5/5/13 16/6/14 11/7/15 3/8/16
s 2
f 5/27/17 8/25/7 15/24/6 16/28/18
s 1
f 11/19/19 12/16/2 9/15/1 3/20/20
s off
f 1/31/21 7/32/22 10/33/23 2/34/24
s 1
f 2/21/25 10/22/26 12/16/2 11/19/19
s 2
f 16/28/18 15/24/6 7/29/27 1/30/28
s 3
f 11/7/15 16/6/14 1/9/29 2/10/30
s off
f 13/35/31 12/36/32 15/37/33 14/38/34
f 7/11/35 15/12/36 12/13/37 10/14/38
