# This file uses centimeters as units for non-parametric coordinates.

mtllib FogataG.mtl
g default
v -1.916332 1.000000 -1.383632
v -1.605009 2.003959 -1.664038
v -2.977381 2.003959 -1.382623
v -2.977381 1.000000 -1.383632
v -2.977381 1.000000 -3.013589
v -1.916332 1.000000 -3.013589
v -2.977381 2.003959 -3.013590
v -1.918153 2.003959 -3.013590
v -2.977381 -0.001656 -2.228096
v -1.916332 -0.001657 -2.228100
v -2.977381 -0.001656 -3.013590
v -1.916332 -0.001657 -3.013588
v 1.949409 1.000000 -1.383632
v 1.663861 2.003959 -1.636843
v 1.949409 1.000000 -3.013589
v 1.958196 2.003959 -3.013590
v 3.050946 1.000000 -1.383632
v 3.050946 2.003959 -1.388180
v 3.050946 1.000000 -3.013589
v 3.050946 2.003959 -3.013590
v 1.949409 0.001656 -2.229396
v 1.949409 0.001656 -3.013590
v 3.050946 0.001656 -3.013590
v 3.050946 0.001656 -2.229396
v 2.166272 2.003959 -0.000000
v 3.050946 2.003959 -0.000000
v 3.050946 1.000000 0.000000
v -2.977381 1.000000 0.000000
v -2.977381 2.003959 -0.000000
v -2.111148 2.003959 -0.000000
v 0.012511 1.000000 -3.013589
v 0.016558 2.003959 -3.013590
v 0.016762 2.003959 -2.262325
v -2.259019 2.529805 -2.141666
v 0.017583 2.529805 -2.979628
v -2.967915 2.529805 -0.000000
v 2.319364 2.529805 -2.103577
v 3.023039 2.529805 -0.000000
v -2.259019 2.783768 -2.141666
v -0.010548 2.783768 -2.979628
v -2.967915 2.783768 -0.000000
v 2.319364 2.783768 -2.103577
v 3.023039 2.783768 -0.000000
v -1.385981 2.783768 -1.504078
v 0.004003 2.783768 -2.022098
v -1.824212 2.783768 -0.000000
v 1.444332 2.783768 -1.480532
v 1.879335 2.783768 -0.000000
v -1.385981 3.000000 -1.504078
v 0.004003 3.000000 -2.022097
v -1.824212 3.000000 0.000000
v 1.444332 3.000000 -1.480532
v 1.879335 3.000000 0.000000
v -1.916332 1.000000 1.383633
v -1.605009 2.003959 1.664037
v -2.977381 2.003959 1.382622
v -2.977381 1.000000 1.383633
v -2.977381 1.000000 3.013590
v -1.916332 1.000000 3.013590
v -2.977381 2.003959 3.013589
v -1.918153 2.003959 3.013589
v -2.977381 -0.001656 2.228095
v -1.916332 -0.001657 2.228092
v -2.977381 -0.001657 3.013591
v -1.916332 -0.001656 3.013589
v 1.949409 1.000000 1.383633
v 1.663861 2.003958 1.636842
v 1.949409 1.000000 3.013590
v 1.958196 2.003959 3.013589
v 3.050946 1.000000 1.383633
v 3.050946 2.003958 1.388179
v 3.050946 1.000000 3.013590
v 3.050946 2.003959 3.013589
v 1.949409 0.001656 2.229395
v 1.949409 0.001656 3.013589
v 3.050946 0.001656 3.013589
v 3.050946 0.001656 2.229395
v 0.012511 1.000000 3.013590
v 0.016558 2.003959 3.013589
v 0.016762 2.003959 2.262324
v -2.259019 2.529805 2.141665
v 0.017583 2.529805 2.979627
v 2.319364 2.529805 2.103576
v -2.259019 2.783768 2.141665
v -0.010548 2.783768 2.979627
v 2.319364 2.783768 2.103576
v -1.385981 2.783768 1.504077
v 0.004003 2.783768 2.022097
v 1.444332 2.783768 1.480531
v -1.385981 3.000000 1.504078
v 0.004003 3.000000 2.022097
v 1.444332 3.000000 1.480532
v 0.004003 3.000000 0.000000
vt 0.854993 0.084682
vt 0.854993 0.025798
vt 0.966595 0.025798
vt 0.966595 0.084580
vt 0.743646 0.084681
vt 0.743646 0.025798
vt 0.966595 0.191949
vt 0.854993 0.191724
vt 0.966595 0.299701
vt 0.854993 0.299213
vt 0.966595 0.360344
vt 0.854993 0.360344
vt 0.744015 0.360344
vt 0.744015 0.299213
vt 0.129248 0.979987
vt 0.070365 0.979998
vt 0.070342 0.855427
vt 0.129226 0.855416
vt 0.250539 0.980494
vt 0.189409 0.980484
vt 0.189430 0.856203
vt 0.250561 0.856213
vt 0.946123 0.516670
vt 0.924423 0.383772
vt 0.952554 0.379772
vt 0.974081 0.515098
vt 0.873329 0.516992
vt 0.854245 0.417450
vt 0.924360 0.651980
vt 0.952898 0.655976
vt 0.854261 0.618642
vt 0.780556 0.193587
vt 0.780570 0.109181
vt 0.804607 0.109185
vt 0.804593 0.193591
vt 0.780543 0.281178
vt 0.804579 0.281182
vt 0.854993 0.301460
vt 0.966595 0.301561
vt 0.966595 0.360344
vt 0.854993 0.360344
vt 0.854993 0.194418
vt 0.966595 0.194193
vt 0.743646 0.360344
vt 0.743646 0.301460
vt 0.854993 0.086928
vt 0.966595 0.086441
vt 0.854993 0.025798
vt 0.966595 0.025798
vt 0.744015 0.086928
vt 0.744015 0.025798
vt 0.249415 0.856057
vt 0.249438 0.980629
vt 0.190554 0.980639
vt 0.190532 0.856068
vt 0.130350 0.855561
vt 0.130371 0.979842
vt 0.069240 0.979852
vt 0.069219 0.855572
vt 0.803516 0.839464
vt 0.831474 0.841031
vt 0.809966 0.976361
vt 0.781835 0.972365
vt 0.781733 0.704157
vt 0.810270 0.700157
vt 0.730722 0.839153
vt 0.711652 0.938697
vt 0.711639 0.737505
vt 0.804593 0.193588
vt 0.780556 0.193590
vt 0.780549 0.109184
vt 0.804585 0.109182
vt 0.804601 0.281179
vt 0.780564 0.281182
vt 0.356177 0.127966
vt 0.280016 0.109352
vt 0.297394 0.020086
vt 0.356177 0.020086
vt 0.356177 0.219420
vt 0.308105 0.219420
vt 0.190015 0.069778
vt 0.190026 0.020086
vt 0.356177 0.310874
vt 0.280016 0.329488
vt 0.098608 0.111151
vt 0.082274 0.020086
vt 0.356177 0.418755
vt 0.297394 0.418755
vt 0.021631 0.127599
vt 0.021631 0.020086
vt 0.190026 0.418755
vt 0.190015 0.369062
vt 0.070726 0.219420
vt 0.021631 0.219420
vt 0.082274 0.418755
vt 0.098608 0.327689
vt 0.021631 0.311242
vt 0.021631 0.418755
vt 0.606215 0.007725
vt 0.710756 0.095553
vt 0.652518 0.122652
vt 0.587892 0.068358
vt 0.709310 0.242568
vt 0.648324 0.224983
vt 0.465923 0.027582
vt 0.501165 0.080633
vt 0.632263 0.367784
vt 0.597393 0.313839
vt 0.389852 0.150458
vt 0.450838 0.168042
vt 0.497010 0.386472
vt 0.513782 0.325391
vt 0.446903 0.268827
vt 0.388826 0.294971
vt 0.823905 0.503933
vt 0.808964 0.587006
vt 0.718112 0.634283
vt 0.693989 0.535735
vt 0.615695 0.634316
vt 0.564072 0.567537
vt 0.669243 0.434647
vt 0.770105 0.434811
vt 0.579862 0.481380
vt 0.259662 0.638175
vt 0.148059 0.638175
vt 0.148059 0.546654
vt 0.259662 0.546353
vt 0.259661 0.729996
vt 0.148059 0.729695
vt 0.148059 0.438840
vt 0.259662 0.438840
vt 0.259662 0.837509
vt 0.148059 0.837509
vt 0.037082 0.490711
vt 0.037082 0.438840
vt 0.037082 0.837509
vt 0.037082 0.785639
vt 0.415193 0.638338
vt 0.526796 0.638338
vt 0.526796 0.546884
vt 0.415193 0.546818
vt 0.415193 0.729859
vt 0.526796 0.729792
vt 0.526796 0.439004
vt 0.415193 0.439004
vt 0.415193 0.837673
vt 0.526795 0.837673
vt 0.303847 0.439004
vt 0.303847 0.490961
vt 0.303847 0.785716
vt 0.303847 0.837673
vt 0.582934 0.220843
vt 0.475120 0.220843
vt 0.530978 0.109497
vt 0.582934 0.109497
vt 0.121842 0.167487
vt 0.229655 0.167487
vt 0.229655 0.278465
vt 0.177785 0.278465
vt 0.887846 0.828535
vt 0.902266 0.686957
vt 0.874046 0.684463
vt 0.859668 0.828532
vt 0.961674 0.828544
vt 0.973734 0.714980
vt 0.874010 0.972604
vt 0.902231 0.970117
vt 0.973706 0.942112
vt 0.619222 0.684105
vt 0.604417 0.828221
vt 0.576470 0.828221
vt 0.590777 0.681545
vt 0.690567 0.712970
vt 0.678309 0.828220
vt 0.619225 0.972336
vt 0.590780 0.974897
vt 0.690570 0.943470
vt 0.065074 0.637965
vt 0.065074 0.537104
vt 0.089111 0.537104
vt 0.089111 0.637965
vt 0.089111 0.738827
vt 0.065074 0.738827
vt 0.088937 0.536939
vt 0.088948 0.637964
vt 0.065238 0.637967
vt 0.065227 0.536942
vt 0.088958 0.738989
vt 0.065248 0.738991
vt 0.582934 0.220843
vt 0.582934 0.109497
vt 0.530977 0.109497
vt 0.475120 0.220843
vt 0.121842 0.167487
vt 0.177785 0.278465
vt 0.229655 0.278465
vt 0.229655 0.167487
vn 1.000000 0.000000 -0.000000
vn 1.000000 0.000000 0.000000
vn 1.000000 0.000000 -0.000000
vn 1.000000 0.000000 -0.000000
vn -1.000000 -0.000000 -0.000000
vn -1.000000 -0.000000 -0.000000
vn -1.000000 -0.000000 -0.000000
vn -1.000000 -0.000000 -0.000000
vn 0.000000 -0.000001 -1.000000
vn 0.000000 -0.000001 -1.000000
vn 0.000000 -0.000001 -1.000000
vn 0.000000 -0.000001 -1.000000
vn -1.000000 -0.000000 -0.000000
vn -1.000000 -0.000000 -0.000000
vn -1.000000 -0.000000 -0.000000
vn -1.000000 -0.000000 -0.000000
vn -0.000000 1.000000 0.000000
vn -0.000000 1.000000 0.000000
vn -0.000000 1.000000 0.000000
vn -0.000000 1.000000 0.000000
vn 1.000000 0.000000 0.000000
vn 1.000000 0.000000 0.000000
vn 1.000000 0.000000 0.000000
vn 1.000000 0.000000 0.000000
vn 0.000001 -0.644567 0.764548
vn 0.000001 -0.644567 0.764548
vn 0.000001 -0.644567 0.764548
vn 0.000001 -0.644567 0.764548
vn -1.000000 -0.000000 -0.000000
vn -1.000000 -0.000000 -0.000000
vn -1.000000 -0.000000 -0.000000
vn -1.000000 -0.000000 -0.000000
vn 0.000001 -0.000001 -1.000000
vn 0.000001 -0.000001 -1.000000
vn 0.000001 -0.000001 -1.000000
vn 0.000001 -0.000001 -1.000000
vn 1.000000 0.000000 0.000000
vn 1.000000 0.000000 0.000000
vn 1.000000 0.000000 0.000000
vn 1.000000 0.000000 0.000000
vn 0.000000 -0.000001 -1.000000
vn 0.000000 -0.000001 -1.000000
vn 0.000000 -0.000001 -1.000000
vn 0.000000 -0.000001 -1.000000
vn -0.000000 1.000000 -0.000000
vn -0.000000 1.000000 -0.000000
vn -0.000000 1.000000 0.000000
vn -0.000000 1.000000 0.000000
vn 0.000000 -0.000000 -1.000000
vn 0.000000 -0.000000 -1.000000
vn 0.000000 -0.000000 -1.000000
vn 0.000000 -0.000000 -1.000000
vn -0.000000 1.000000 0.000000
vn -0.000000 1.000000 0.000000
vn -0.000000 1.000000 0.000000
vn -0.000000 1.000000 0.000000
vn -1.000000 -0.000000 -0.000000
vn -1.000000 -0.000000 -0.000000
vn -1.000000 -0.000000 -0.000000
vn -1.000000 -0.000000 -0.000000
vn -0.000000 0.000000 -1.000000
vn -0.000000 0.000000 -1.000000
vn -0.000000 0.000000 -1.000000
vn -0.000000 0.000000 -1.000000
vn 1.000000 0.000000 0.000000
vn 1.000000 0.000000 0.000000
vn 1.000000 0.000000 0.000000
vn 1.000000 0.000000 0.000000
vn 0.000000 -0.646392 0.763005
vn 0.000000 -0.646392 0.763005
vn 0.000000 -0.646392 0.763005
vn 0.000000 -0.646392 0.763005
vn -0.000000 1.000000 -0.000000
vn -0.000000 1.000000 -0.000000
vn -0.000000 1.000000 0.000000
vn -0.000000 1.000000 0.000000
vn -0.000000 1.000000 0.000000
vn -0.000000 1.000000 0.000000
vn 0.000000 1.000000 0.000000
vn 0.000000 1.000000 0.000000
vn 0.000000 -0.000001 -1.000000
vn 0.000000 -0.000001 -1.000000
vn -0.000000 1.000000 -0.000000
vn -0.000000 1.000000 -0.000000
vn -0.212744 -0.788224 -0.577446
vn -0.212744 -0.788224 -0.577446
vn -0.212744 -0.788224 -0.577446
vn -0.212744 -0.788224 -0.577446
vn 0.534547 -0.845139 0.000000
vn 0.526779 -0.832858 -0.169858
vn 0.526779 -0.832858 -0.169858
vn 0.534547 -0.845139 0.000000
vn -0.526818 -0.833170 -0.168196
vn -0.534432 -0.845212 -0.000000
vn -0.534432 -0.845212 -0.000000
vn -0.526818 -0.833170 -0.168196
vn 0.219434 -0.786649 -0.577089
vn 0.219434 -0.786649 -0.577089
vn 0.219434 -0.786649 -0.577089
vn 0.219434 -0.786649 -0.577089
vn -0.347245 -0.019232 -0.937577
vn -0.347245 -0.019232 -0.937577
vn -0.347245 -0.019232 -0.937577
vn -0.347245 -0.019232 -0.937577
vn 0.948347 0.000000 -0.317235
vn 0.948347 0.000000 -0.317235
vn 0.948347 0.000000 -0.317235
vn 0.948347 0.000000 -0.317235
vn -0.949345 -0.000000 -0.314235
vn -0.949345 -0.000000 -0.314235
vn -0.949345 -0.000000 -0.314235
vn -0.949345 -0.000000 -0.314235
vn 0.353748 0.019592 -0.935135
vn 0.353748 0.019592 -0.935135
vn 0.353748 0.019592 -0.935135
vn 0.353748 0.019592 -0.935135
vn 0.000000 1.000000 0.000000
vn 0.000000 1.000000 0.000000
vn 0.000000 1.000000 0.000000
vn 0.000000 1.000000 0.000000
vn 0.000000 1.000000 0.000000
vn 0.000000 1.000000 0.000000
vn 0.000000 1.000000 0.000000
vn 0.000000 1.000000 0.000000
vn -0.000000 1.000000 -0.000000
vn -0.000000 1.000000 -0.000000
vn -0.000000 1.000000 -0.000000
vn -0.000000 1.000000 -0.000000
vn -0.000000 1.000000 -0.000000
vn -0.000000 1.000000 -0.000000
vn -0.000000 1.000000 -0.000000
vn -0.000000 1.000000 -0.000000
vn -0.349217 0.000002 -0.937042
vn -0.349217 0.000002 -0.937042
vn -0.349217 0.000002 -0.937042
vn -0.349217 0.000002 -0.937042
vn 1.000000 0.000000 -0.000000
vn 0.959444 0.000001 -0.281900
vn 0.959444 0.000001 -0.281900
vn 1.000000 0.000000 0.000000
vn -0.960078 0.000001 -0.279731
vn -1.000000 -0.000000 -0.000000
vn -1.000000 -0.000000 0.000000
vn -0.960078 0.000001 -0.279731
vn 0.351945 0.000002 -0.936021
vn 0.351945 0.000002 -0.936021
vn 0.351945 0.000002 -0.936021
vn 0.351945 0.000002 -0.936021
vn 1.000000 0.000000 0.000000
vn 1.000000 0.000000 0.000000
vn -1.000000 -0.000000 -0.000000
vn -1.000000 -0.000000 -0.000000
vn -0.000000 0.000001 1.000000
vn -0.000000 0.000001 1.000000
vn -0.000000 0.000001 1.000000
vn -0.000000 0.000001 1.000000
vn -1.000000 -0.000000 -0.000000
vn -1.000000 -0.000000 -0.000000
vn -1.000000 -0.000000 -0.000000
vn -1.000000 -0.000000 -0.000000
vn 0.000000 1.000000 0.000000
vn 0.000000 1.000000 0.000000
vn 0.000000 1.000000 0.000000
vn 0.000000 1.000000 0.000000
vn 1.000000 0.000000 0.000000
vn 1.000000 0.000000 0.000000
vn 1.000000 0.000000 0.000000
vn 1.000000 0.000000 0.000000
vn -0.000002 -0.644565 -0.764550
vn -0.000002 -0.644565 -0.764550
vn -0.000002 -0.644565 -0.764550
vn -0.000002 -0.644565 -0.764550
vn -1.000000 -0.000000 -0.000000
vn -1.000000 -0.000000 -0.000000
vn -1.000000 -0.000000 -0.000000
vn -1.000000 -0.000000 -0.000000
vn 0.000001 0.000000 1.000000
vn 0.000001 0.000000 1.000000
vn 0.000001 0.000000 1.000000
vn 0.000001 0.000000 1.000000
vn 1.000000 0.000000 0.000000
vn 1.000000 0.000000 0.000000
vn 1.000000 0.000000 0.000000
vn 1.000000 0.000000 0.000000
vn -0.000000 0.000001 1.000000
vn -0.000000 0.000001 1.000000
vn -0.000000 0.000001 1.000000
vn -0.000000 0.000001 1.000000
vn -0.000000 1.000000 -0.000000
vn 0.000000 1.000000 -0.000000
vn 0.000000 1.000000 -0.000000
vn 0.000000 1.000000 -0.000000
vn -0.000000 0.000001 1.000000
vn -0.000000 0.000001 1.000000
vn -0.000000 0.000001 1.000000
vn -0.000000 0.000001 1.000000
vn -0.000000 1.000000 -0.000000
vn -0.000000 1.000000 -0.000000
vn -0.000000 1.000000 -0.000000
vn -0.000000 1.000000 -0.000000
vn -1.000000 -0.000000 -0.000000
vn -1.000000 -0.000000 -0.000000
vn -1.000000 -0.000000 -0.000000
vn -1.000000 -0.000000 -0.000000
vn 0.000000 -0.000001 1.000000
vn 0.000000 -0.000001 1.000000
vn 0.000000 -0.000001 1.000000
vn 0.000000 -0.000001 1.000000
vn 1.000000 0.000000 0.000000
vn 1.000000 0.000000 0.000000
vn 1.000000 0.000000 0.000000
vn 1.000000 0.000000 0.000000
vn 0.000000 -0.646392 -0.763005
vn 0.000000 -0.646392 -0.763005
vn 0.000000 -0.646392 -0.763005
vn 0.000000 -0.646392 -0.763005
vn -0.000000 1.000000 -0.000000
vn -0.000000 1.000000 -0.000000
vn 0.000000 1.000000 0.000000
vn 0.000000 1.000000 0.000000
vn -0.000000 0.000001 1.000000
vn -0.000000 0.000001 1.000000
vn -0.000000 1.000000 -0.000000
vn -0.000000 1.000000 -0.000000
vn -0.212744 -0.788224 0.577446
vn -0.212744 -0.788224 0.577446
vn -0.212744 -0.788224 0.577446
vn -0.212744 -0.788224 0.577446
vn 0.526779 -0.832858 0.169858
vn 0.526779 -0.832858 0.169858
vn -0.526818 -0.833170 0.168196
vn -0.526818 -0.833171 0.168196
vn 0.219434 -0.786649 0.577089
vn 0.219434 -0.786649 0.577089
vn 0.219434 -0.786649 0.577089
vn 0.219434 -0.786649 0.577089
vn -0.347245 -0.019233 0.937577
vn -0.347245 -0.019233 0.937577
vn -0.347245 -0.019233 0.937577
vn -0.347245 -0.019233 0.937577
vn 0.948347 0.000000 0.317235
vn 0.948347 0.000000 0.317235
vn 0.948347 0.000000 0.317235
vn 0.948347 0.000000 0.317235
vn -0.949345 -0.000000 0.314235
vn -0.949345 -0.000000 0.314235
vn -0.949345 -0.000000 0.314235
vn -0.949345 -0.000000 0.314235
vn 0.353748 0.019592 0.935135
vn 0.353748 0.019592 0.935135
vn 0.353748 0.019592 0.935135
vn 0.353748 0.019592 0.935135
vn -0.000000 1.000000 0.000000
vn -0.000000 1.000000 0.000000
vn -0.000000 1.000000 0.000000
vn -0.000000 1.000000 0.000000
vn 0.000000 1.000000 0.000000
vn 0.000000 1.000000 0.000000
vn -0.000000 1.000000 -0.000000
vn -0.000000 1.000000 -0.000000
vn -0.000000 1.000000 0.000000
vn -0.000000 1.000000 0.000000
vn -0.000000 1.000000 0.000000
vn -0.000000 1.000000 0.000000
vn -0.349217 -0.000002 0.937042
vn -0.349217 -0.000002 0.937042
vn -0.349217 -0.000002 0.937042
vn -0.349217 -0.000002 0.937042
vn 0.959444 -0.000001 0.281900
vn 0.959444 -0.000001 0.281900
vn -0.960078 -0.000001 0.279731
vn -0.960078 -0.000001 0.279731
vn 0.351945 -0.000002 0.936021
vn 0.351945 -0.000002 0.936021
vn 0.351945 -0.000002 0.936021
vn 0.351945 -0.000002 0.936021
vn -0.000000 1.000000 -0.000000
vn -0.000000 1.000000 -0.000000
vn -0.000000 1.000000 -0.000000
vn 0.000000 1.000000 0.000000
vn 0.000000 1.000000 0.000000
vn 0.000000 1.000000 0.000000
vn -0.000000 1.000000 0.000000
vn 0.000000 1.000000 0.000000
vn 0.000000 1.000000 0.000000
s 1
g pCube2
usemtl initialShadingGroup
f 26/124/1 27/125/2 17/126/3 18/127/4
s 2
f 28/138/5 29/139/6 3/140/7 4/141/8
s off
f 6/1/9 5/2/10 7/3/11 8/4/12
f 4/141/13 3/140/14 7/144/15 5/145/16
f 3/75/17 2/76/18 8/77/19 7/78/20
f 18/127/21 17/126/22 19/130/23 20/131/24
f 1/15/25 4/16/26 9/17/27 10/18/28
f 4/141/29 5/145/30 11/148/31 9/149/32
f 5/2/33 6/1/34 12/5/35 11/6/36
f 6/152/37 1/153/38 10/154/39 12/155/40
s 3
f 31/8/41 32/7/42 16/9/43 15/10/44
s 4
f 32/82/45 33/81/46 14/85/47 16/86/48
s off
f 15/10/49 16/9/50 20/11/51 19/12/52
f 16/86/53 14/85/54 18/89/55 20/90/56
f 13/156/57 15/157/58 22/158/59 21/159/60
f 15/10/61 19/12/62 23/13/63 22/14/64
f 19/130/65 17/126/66 24/134/67 23/135/68
f 17/19/69 13/20/70 21/21/71 24/22/72
s 5
f 29/79/73 30/80/74 2/76/75 3/75/76
s 6
f 18/89/77 14/85/78 25/93/79 26/94/80
s 3
f 6/1/81 8/4/82 32/7/42 31/8/41
s 4
f 8/77/83 2/76/84 33/81/46 32/82/45
s off
f 33/27/85 2/28/86 34/24/87 35/23/88
s 7
f 25/164/89 14/165/90 37/161/91 38/160/92
s 8
f 2/173/93 30/174/94 36/170/95 34/169/96
s off
f 14/31/97 33/27/98 35/23/99 37/29/100
f 35/23/101 34/24/102 39/25/103 40/26/104
f 38/160/105 37/161/106 42/162/107 43/163/108
f 34/169/109 36/170/110 41/171/111 39/172/112
f 37/29/113 35/23/114 40/26/115 42/30/116
f 40/99/117 39/100/118 44/101/119 45/102/120
s 9
f 43/109/121 42/105/122 47/106/123 48/110/124
s 10
f 39/100/125 41/103/126 46/104/127 44/101/128
s off
f 42/105/129 40/99/130 45/102/131 47/106/132
f 45/32/133 44/33/134 49/34/135 50/35/136
s 11
f 48/178/137 47/179/138 52/180/139 53/181/140
s 12
f 44/184/141 46/185/142 51/186/143 49/187/144
s off
f 47/36/145 45/32/146 50/35/147 52/37/148
s 1
f 26/124/1 71/128/149 70/129/150 27/125/2
s 2
f 28/138/5 57/142/151 56/143/152 29/139/6
s off
f 59/38/153 61/39/154 60/40/155 58/41/156
f 57/142/157 58/146/158 60/147/159 56/143/160
f 56/83/161 60/87/162 61/88/163 55/84/164
f 71/128/165 73/132/166 72/133/167 70/129/168
f 54/52/169 63/53/170 62/54/171 57/55/172
f 57/142/173 62/150/174 64/151/175 58/146/176
f 58/41/177 64/44/178 65/45/179 59/38/180
f 59/190/181 65/191/182 63/192/183 54/193/184
s 13
f 78/42/185 68/46/186 69/47/187 79/43/188
s 14
f 79/91/189 69/95/190 67/96/191 80/92/192
s off
f 68/46/193 72/48/194 73/49/195 69/47/196
f 69/95/197 73/98/198 71/97/199 67/96/200
f 66/194/201 74/195/202 75/196/203 68/197/204
f 68/46/205 75/50/206 76/51/207 72/48/208
f 72/133/209 76/136/210 77/137/211 70/129/212
f 70/56/213 77/57/214 74/58/215 66/59/216
s 5
f 29/79/73 56/83/217 55/84/218 30/80/74
s 6
f 71/97/219 26/94/80 25/93/79 67/96/220
s 13
f 59/38/221 78/42/185 79/43/188 61/39/222
s 14
f 61/88/223 79/91/189 80/92/192 55/84/224
s off
f 80/66/225 82/60/226 81/63/227 55/67/228
s 7
f 25/164/89 38/160/92 83/167/229 67/168/230
s 8
f 55/177/231 81/175/232 36/170/95 30/174/94
s off
f 67/68/233 83/64/234 82/60/235 80/66/236
f 82/60/237 85/61/238 84/62/239 81/63/240
f 38/160/241 43/163/242 86/166/243 83/167/244
f 81/175/245 84/176/246 41/171/247 36/170/248
f 83/64/249 86/65/250 85/61/251 82/60/252
f 85/111/253 88/112/254 87/108/255 84/107/256
s 9
f 43/109/121 48/110/124 89/113/257 86/114/258
s 10
f 84/107/259 87/108/260 46/104/127 41/103/126
s off
f 86/114/261 89/113/262 88/112/263 85/111/264
f 88/69/265 91/70/266 90/71/267 87/72/268
s 11
f 48/178/137 53/181/140 92/182/269 89/183/270
s 12
f 87/188/271 90/189/272 51/186/143 46/185/142
s off
f 89/73/273 92/74/274 91/70/275 88/69/276
s 15
f 50/115/277 49/116/278 51/117/279 93/118/280
f 50/115/277 93/118/280 53/121/281 52/122/282
f 93/118/280 51/117/279 90/119/283 91/120/284
f 53/121/281 93/118/280 91/120/284 92/123/285
