# This file uses centimeters as units for non-parametric coordinates.

mtllib Espada.mtl
g default
v 1.188491 0.891145 -4.707786
v 1.789973 0.891145 -4.707786
v 1.103719 1.062440 -4.682697
v 1.881497 1.062440 -4.682697
v 1.103719 1.062440 -5.184459
v 1.881497 1.062440 -5.184459
v 1.188491 0.891145 -5.159371
v 1.789973 0.891145 -5.159371
v 1.338861 0.722099 -5.019757
v 1.639602 0.722099 -5.019757
v 1.639602 0.722049 -4.805696
v 1.338861 0.722049 -4.805696
v 1.338861 0.180106 -5.021635
v 1.639602 0.180106 -5.021635
v 1.639602 0.180593 -4.808138
v 1.338861 0.180593 -4.808138
v 1.288738 0.106778 -5.115429
v 1.689726 0.106778 -5.115429
v 1.689726 0.105976 -4.762474
v 1.288738 0.105976 -4.762474
v 1.338861 0.020600 -5.108265
v 1.639602 0.020600 -5.108265
v 1.639602 0.020600 -4.790231
v 1.338861 0.020600 -4.790231
v 1.275644 1.062439 -4.817049
v 1.714874 1.062439 -4.817049
v 1.714874 1.062440 -5.050108
v 1.275644 1.062440 -5.050108
v 1.275549 2.563903 -4.758784
v 1.716289 2.563903 -4.758784
v 1.716289 2.563903 -5.108372
v 1.275549 2.563903 -5.108372
v 1.536320 2.991004 -4.915576
v 1.536320 2.991004 -4.971005
v 1.483520 2.991004 -4.971005
v 1.483520 2.991004 -4.915576
vt 0.491338 0.972544
vt 0.484234 0.829568
vt 0.544804 0.818596
vt 0.552697 0.977458
vt 0.425157 0.948702
vt 0.415237 0.877308
vt 0.247447 0.946286
vt 0.245317 0.878627
vt 0.214671 0.961213
vt 0.216989 0.849259
vt 0.187037 0.952759
vt 0.185678 0.851952
vt 0.641318 0.843616
vt 0.649619 0.700393
vt 0.710162 0.695919
vt 0.700938 0.855055
vt 0.572568 0.795203
vt 0.583100 0.723738
vt 0.402297 0.792476
vt 0.404990 0.724691
vt 0.373665 0.821673
vt 0.372267 0.709460
vt 0.342310 0.818716
vt 0.344505 0.717704
vt 0.477364 0.049807
vt 0.555442 0.049802
vt 0.574997 0.547283
vt 0.457880 0.547291
vt 0.528988 0.703005
vt 0.510418 0.703006
vt 0.351915 0.049811
vt 0.429993 0.049800
vt 0.449586 0.547279
vt 0.332470 0.547297
vt 0.397082 0.703006
vt 0.378512 0.703008
vt 0.045204 0.847211
vt 0.146788 0.847211
vt 0.146788 0.954635
vt 0.045204 0.954635
vt 0.590233 0.525673
vt 0.590233 0.262957
vt 0.635614 0.319879
vt 0.635614 0.468751
vt 0.759717 0.262957
vt 0.714336 0.319879
vt 0.759717 0.525673
vt 0.714336 0.468751
vt 0.156186 0.682667
vt 0.156186 0.701390
vt 0.138351 0.701390
vt 0.138351 0.682667
vt 0.756237 0.552765
vt 0.955003 0.552803
vt 0.985237 0.609403
vt 0.728213 0.609354
vt 0.805939 0.498847
vt 0.905322 0.498866
vt 0.805974 0.313573
vt 0.905357 0.313592
vt 0.789417 0.279876
vt 0.921927 0.279902
vt 0.805985 0.254717
vt 0.905368 0.254736
vt 0.721076 0.624708
vt 0.971707 0.624689
vt 0.942219 0.679878
vt 0.748397 0.679893
vt 0.893769 0.750071
vt 0.796858 0.750078
vt 0.893782 0.922805
vt 0.796871 0.922812
vt 0.909937 0.961009
vt 0.780722 0.961019
vt 0.893787 0.988571
vt 0.796876 0.988579
vt 0.175897 0.049719
vt 0.324043 0.050012
vt 0.324167 0.549539
vt 0.176021 0.549246
vt 0.258668 0.700860
vt 0.240920 0.700825
vt 0.022212 0.049831
vt 0.170748 0.050519
vt 0.167311 0.551355
vt 0.018775 0.550666
vt 0.101247 0.700748
vt 0.083452 0.700665
vn 0.000000 -0.144917 0.989444
vn 0.000000 -0.144917 0.989444
vn 0.000000 -0.144917 0.989444
vn 0.000000 -0.144917 0.989444
vn 0.000000 -0.144916 -0.989444
vn 0.000000 -0.144916 -0.989444
vn 0.000000 -0.144916 -0.989444
vn 0.000000 -0.144916 -0.989444
vn 0.000000 -1.000000 0.000000
vn 0.000000 -1.000000 0.000000
vn 0.000000 -1.000000 0.000000
vn 0.000000 -1.000000 0.000000
vn 0.881995 -0.471258 0.000000
vn 0.881995 -0.471258 0.000000
vn 0.881995 -0.471258 0.000000
vn 0.881995 -0.471258 0.000000
vn -0.896253 -0.443543 0.000000
vn -0.896253 -0.443543 0.000000
vn -0.896253 -0.443543 0.000000
vn -0.896253 -0.443543 0.000000
vn 0.000000 -0.636793 -0.771034
vn 0.000000 -0.636793 -0.771034
vn 0.000000 -0.636793 -0.771034
vn 0.000000 -0.636793 -0.771034
vn 0.747219 -0.664578 -0.000050
vn 0.747219 -0.664578 -0.000050
vn 0.747219 -0.664578 -0.000050
vn 0.747219 -0.664578 -0.000050
vn 0.000000 -0.501085 0.865398
vn 0.000000 -0.501085 0.865398
vn 0.000000 -0.501085 0.865398
vn 0.000000 -0.501085 0.865398
vn -0.747219 -0.664578 -0.000050
vn -0.747219 -0.664578 -0.000050
vn -0.747219 -0.664578 -0.000050
vn -0.747219 -0.664578 -0.000050
vn 0.000000 0.003465 -0.999994
vn 0.000000 0.003465 -0.999994
vn 0.000000 0.003465 -0.999994
vn 0.000000 0.003465 -0.999994
vn 1.000000 0.000000 0.000000
vn 1.000000 0.000000 0.000000
vn 1.000000 0.000000 0.000000
vn 1.000000 0.000000 0.000000
vn 0.000000 -0.004511 0.999990
vn 0.000000 -0.004511 0.999990
vn 0.000000 -0.004511 0.999990
vn 0.000000 -0.004511 0.999990
vn -1.000000 0.000000 0.000000
vn -1.000000 0.000000 0.000000
vn -1.000000 0.000000 0.000000
vn -1.000000 0.000000 0.000000
vn 0.000000 0.787811 -0.615917
vn 0.000000 0.787811 -0.615917
vn 0.000000 0.787811 -0.615917
vn 0.000000 0.787811 -0.615917
vn 0.827898 0.560879 0.000311
vn 0.827898 0.560879 0.000311
vn 0.827898 0.560879 0.000311
vn 0.827898 0.560879 0.000311
vn 0.000000 0.521994 0.852949
vn 0.000000 0.521994 0.852949
vn 0.000000 0.521994 0.852949
vn 0.000000 0.521994 0.852949
vn -0.827898 0.560879 0.000311
vn -0.827898 0.560879 0.000311
vn -0.827898 0.560879 0.000311
vn -0.827898 0.560879 0.000311
vn 0.000000 -0.082835 -0.996563
vn 0.000000 -0.082835 -0.996563
vn 0.000000 -0.082835 -0.996563
vn 0.000000 -0.082835 -0.996563
vn 0.863429 -0.504470 -0.000602
vn 0.863429 -0.504470 -0.000602
vn 0.863429 -0.504470 -0.000602
vn 0.863429 -0.504470 -0.000602
vn 0.000000 -0.309182 0.951003
vn 0.000000 -0.309182 0.951003
vn 0.000000 -0.309182 0.951003
vn 0.000000 -0.309182 0.951003
vn -0.863429 -0.504470 -0.000602
vn -0.863429 -0.504470 -0.000602
vn -0.863429 -0.504470 -0.000602
vn -0.863429 -0.504470 -0.000602
vn 0.000000 1.000000 -0.000002
vn 0.000000 1.000000 -0.000002
vn 0.000000 1.000000 -0.000002
vn 0.000000 1.000000 -0.000002
vn -0.000002 1.000000 0.000000
vn -0.000002 1.000000 0.000000
vn -0.000002 1.000000 0.000000
vn -0.000002 1.000000 0.000000
vn 0.000000 1.000000 0.000001
vn 0.000000 1.000000 0.000001
vn 0.000000 1.000000 0.000001
vn 0.000000 1.000000 0.000001
vn 0.000002 1.000000 0.000000
vn 0.000002 1.000000 0.000000
vn 0.000002 1.000000 0.000000
vn 0.000002 1.000000 0.000000
vn 0.000000 -0.038776 0.999248
vn 0.000000 -0.038776 0.999248
vn 0.000000 -0.038776 0.999248
vn 0.000000 -0.038776 0.999248
vn 1.000000 -0.000942 0.000000
vn 1.000000 -0.000942 0.000000
vn 1.000000 -0.000942 0.000000
vn 1.000000 -0.000942 0.000000
vn 0.000000 -0.038776 -0.999248
vn 0.000000 -0.038776 -0.999248
vn 0.000000 -0.038776 -0.999248
vn 0.000000 -0.038776 -0.999248
vn -1.000000 -0.000063 0.000000
vn -1.000000 -0.000063 0.000000
vn -1.000000 -0.000063 0.000000
vn -1.000000 -0.000063 0.000000
vn 0.000000 1.000000 0.000000
vn 0.000000 1.000000 0.000000
vn 0.000000 1.000000 0.000000
vn 0.000000 1.000000 0.000000
vn 0.921530 0.388308 0.000000
vn 0.921530 0.388308 0.000000
vn 0.921530 0.388308 0.000000
vn 0.921530 0.388308 0.000000
vn 0.000000 0.306180 -0.951974
vn 0.000000 0.306180 -0.951974
vn 0.000000 0.306180 -0.951974
vn 0.000000 0.306180 -0.951974
vn -0.899076 0.437793 0.000000
vn -0.899076 0.437793 0.000000
vn -0.899076 0.437793 0.000000
vn -0.899076 0.437793 0.000000
vn 0.000000 0.344619 0.938743
vn 0.000000 0.344619 0.938743
vn 0.000000 0.344619 0.938743
vn 0.000000 0.344619 0.938743
s off
g pCube1
usemtl initialShadingGroup
f 1/53/1 2/54/2 4/55/3 3/56/4
f 5/65/5 6/66/6 8/67/7 7/68/8
f 21/37/9 22/38/10 23/39/11 24/40/12
f 2/1/13 8/2/14 6/3/15 4/4/16
f 7/13/17 1/14/18 3/15/19 5/16/20
f 7/68/21 8/67/22 10/69/23 9/70/24
f 8/2/25 2/1/26 11/5/27 10/6/28
f 2/54/29 1/53/30 12/57/31 11/58/32
f 1/14/33 7/13/34 9/17/35 12/18/36
f 9/70/37 10/69/38 14/71/39 13/72/40
f 10/6/41 11/5/42 15/7/43 14/8/44
f 11/58/45 12/57/46 16/59/47 15/60/48
f 12/18/49 9/17/50 13/19/51 16/20/52
f 13/72/53 14/71/54 18/73/55 17/74/56
f 14/8/57 15/7/58 19/9/59 18/10/60
f 15/60/61 16/59/62 20/61/63 19/62/64
f 16/20/65 13/19/66 17/21/67 20/22/68
f 17/74/69 18/73/70 22/75/71 21/76/72
f 18/10/73 19/9/74 23/11/75 22/12/76
f 19/62/77 20/61/78 24/63/79 23/64/80
f 20/22/81 17/21/82 21/23/83 24/24/84
f 3/41/85 4/42/86 26/43/87 25/44/88
f 4/42/89 6/45/90 27/46/91 26/43/92
f 6/45/93 5/47/94 28/48/95 27/46/96
f 5/47/97 3/41/98 25/44/99 28/48/100
f 25/77/101 26/78/102 30/79/103 29/80/104
f 26/25/105 27/26/106 31/27/107 30/28/108
f 27/83/109 28/84/110 32/85/111 31/86/112
f 28/31/113 25/32/114 29/33/115 32/34/116
f 33/49/117 34/50/118 35/51/119 36/52/120
f 30/28/121 31/27/122 34/29/123 33/30/124
f 31/86/125 32/85/126 35/87/127 34/88/128
f 32/34/129 29/33/130 36/35/131 35/36/132
f 29/80/133 30/79/134 33/81/135 36/82/136
