# This file uses centimeters as units for non-parametric coordinates.

mtllib Lanza.mtl
g default
v -0.523589 -0.007416 -1.453058
v -0.404930 -0.007416 -1.453058
v -0.523589 3.995196 -1.453058
v -0.404930 3.995196 -1.453058
v -0.523589 3.995196 -1.571382
v -0.404930 3.995196 -1.571382
v -0.523589 -0.007416 -1.571382
v -0.404930 -0.007416 -1.571382
v -0.578964 3.995195 -1.394553
v -0.349554 3.995195 -1.394553
v -0.349554 3.995195 -1.629887
v -0.578964 3.995195 -1.629887
v -0.578964 4.743764 -1.394553
v -0.349554 4.743764 -1.394553
v -0.349554 4.743764 -1.629887
v -0.578964 4.743764 -1.629887
v -0.634668 5.031485 -1.211516
v -0.293849 5.031485 -1.211516
v -0.293849 5.031485 -1.812924
v -0.634668 5.031485 -1.812924
v -0.502494 5.853428 -1.493510
v -0.426026 5.853428 -1.493510
v -0.426026 5.853428 -1.530931
v -0.502494 5.853428 -1.530931
v -0.491288 5.884619 -1.493510
v -0.437232 5.884619 -1.493510
v -0.437232 5.884619 -1.530931
v -0.491288 5.884619 -1.530931
v -0.491288 5.948944 -1.493510
v -0.437232 5.948944 -1.493510
v -0.437232 5.948944 -1.530931
v -0.491288 5.948944 -1.530931
v -0.491288 5.985396 -1.498080
v -0.437232 5.985396 -1.498080
v -0.437232 5.985396 -1.526361
v -0.491288 5.985396 -1.526361
v -0.476111 5.884619 -1.467674
v -0.452409 5.884619 -1.467674
v -0.452409 5.948944 -1.467674
v -0.476111 5.948944 -1.467674
v -0.476111 5.884619 -1.556767
v -0.452409 5.884619 -1.556767
v -0.476111 5.948944 -1.556767
v -0.452409 5.948944 -1.556767
vt 0.772331 0.030730
vt 0.803158 0.030730
vt 0.803158 0.969270
vt 0.772331 0.969270
vt 0.772331 0.030730
vt 0.803158 0.030730
vt 0.803158 0.969270
vt 0.772331 0.969270
vt 0.447449 0.452416
vt 0.513209 0.452416
vt 0.513209 0.640674
vt 0.447449 0.640674
vt 0.564356 0.713033
vt 0.396302 0.713033
vt 0.485557 0.919743
vt 0.475101 0.919743
vt 0.485557 0.927587
vt 0.475101 0.927587
vt 0.485557 0.943765
vt 0.475101 0.943765
vt 0.492777 0.927587
vt 0.492777 0.943765
vt 0.484280 0.952932
vt 0.476378 0.952932
vt 0.467881 0.943765
vt 0.467881 0.927587
vt 0.447449 0.452416
vt 0.513209 0.452416
vt 0.513209 0.640674
vt 0.447449 0.640674
vt 0.564356 0.713033
vt 0.396302 0.713033
vt 0.485557 0.919743
vt 0.475101 0.919743
vt 0.485557 0.927587
vt 0.475101 0.927587
vt 0.485557 0.943765
vt 0.475101 0.943765
vt 0.492777 0.927587
vt 0.492777 0.943765
vt 0.484280 0.952932
vt 0.476378 0.952932
vt 0.467881 0.943765
vt 0.467881 0.927587
vt 0.541088 0.348180
vt 0.541088 0.333174
vt 0.548939 0.333174
vt 0.548939 0.348180
vt 0.348956 0.366114
vt 0.348956 0.333174
vt 0.381803 0.333174
vt 0.381803 0.366114
vt 0.482385 0.382261
vt 0.515324 0.382261
vt 0.530696 0.398502
vt 0.467013 0.398502
vt 0.515324 0.349415
vt 0.530696 0.333174
vt 0.482385 0.349415
vt 0.467013 0.333174
vt 0.645256 0.348180
vt 0.645256 0.333174
vt 0.652428 0.337387
vt 0.652428 0.343967
vt 0.645256 0.348180
vt 0.645256 0.333174
vt 0.652428 0.337387
vt 0.652428 0.343967
vt 0.645256 0.348180
vt 0.645256 0.333174
vt 0.652428 0.337388
vt 0.652428 0.343967
vt 0.645256 0.348180
vt 0.645256 0.333174
vt 0.652428 0.337388
vt 0.652428 0.343967
vt 0.803201 0.969228
vt 0.772289 0.969228
vt 0.772289 0.030772
vt 0.803201 0.030772
vt 0.803201 0.969228
vt 0.772289 0.969228
vt 0.772289 0.030772
vt 0.803201 0.030772
vt 0.622264 0.443648
vt 0.688179 0.443648
vt 0.688179 0.637220
vt 0.622264 0.637220
vt 0.704184 0.711621
vt 0.606259 0.711621
vt 0.666207 0.924167
vt 0.644236 0.924167
vt 0.662987 0.932232
vt 0.647456 0.932232
vt 0.622265 0.443648
vt 0.688179 0.443648
vt 0.688179 0.637220
vt 0.622265 0.637220
vt 0.704184 0.711621
vt 0.606260 0.711621
vt 0.666208 0.924167
vt 0.644237 0.924167
vt 0.662988 0.932232
vt 0.647457 0.932232
vt 0.663774 0.333174
vt 0.670354 0.333174
vt 0.670354 0.349245
vt 0.663774 0.349245
vt 0.670354 0.349245
vt 0.663774 0.349245
vt 0.663774 0.333174
vt 0.670354 0.333174
vt 0.383679 0.348252
vt 0.383679 0.333174
vt 0.392830 0.333174
vt 0.392830 0.348252
vt 0.392830 0.333174
vt 0.392830 0.348252
vt 0.383679 0.348252
vt 0.383679 0.333174
vn 0.000000 0.000000 1.000000
vn 0.000000 0.000000 1.000000
vn 0.000000 0.000000 1.000000
vn 0.000000 0.000000 1.000000
vn 0.000000 1.000000 0.000000
vn 0.000000 1.000000 0.000000
vn 0.000000 1.000000 0.000000
vn 0.000000 1.000000 0.000000
vn 0.000000 0.000000 -1.000000
vn 0.000000 0.000000 -1.000000
vn 0.000000 0.000000 -1.000000
vn 0.000000 0.000000 -1.000000
vn 0.000000 -1.000000 0.000000
vn 0.000000 -1.000000 0.000000
vn 0.000000 -1.000000 0.000000
vn 0.000000 -1.000000 0.000000
vn 1.000000 0.000000 0.000000
vn 1.000000 0.000000 0.000000
vn 1.000000 0.000000 0.000000
vn 1.000000 0.000000 0.000000
vn -1.000000 0.000000 0.000000
vn -1.000000 0.000000 0.000000
vn -1.000000 0.000000 0.000000
vn -1.000000 0.000000 0.000000
vn 0.000000 -1.000000 -0.000008
vn 0.000000 -1.000000 -0.000008
vn 0.000000 -1.000000 -0.000008
vn 0.000000 -1.000000 -0.000008
vn -0.000004 -1.000000 0.000000
vn -0.000004 -1.000000 0.000000
vn -0.000004 -1.000000 0.000000
vn -0.000004 -1.000000 0.000000
vn 0.000000 -1.000000 0.000003
vn 0.000000 -1.000000 0.000003
vn 0.000000 -1.000000 0.000003
vn 0.000000 -1.000000 0.000003
vn 0.000004 -1.000000 0.000000
vn 0.000004 -1.000000 0.000000
vn 0.000004 -1.000000 0.000000
vn 0.000004 -1.000000 0.000000
vn 0.000000 0.000000 1.000000
vn 0.000000 0.000000 1.000000
vn 0.000000 0.000000 1.000000
vn 0.000000 0.000000 1.000000
vn 1.000000 0.000000 0.000000
vn 1.000000 0.000000 0.000000
vn 1.000000 0.000000 0.000000
vn 1.000000 0.000000 0.000000
vn 0.000000 0.000000 -1.000000
vn 0.000000 0.000000 -1.000000
vn 0.000000 0.000000 -1.000000
vn 0.000000 0.000000 -1.000000
vn -1.000000 0.000000 0.000000
vn -1.000000 0.000000 0.000000
vn -1.000000 0.000000 0.000000
vn -1.000000 0.000000 0.000000
vn 0.000000 -0.536756 0.843737
vn 0.000000 -0.536756 0.843737
vn 0.000000 -0.536756 0.843737
vn 0.000000 -0.536756 0.843737
vn 0.981769 -0.190080 0.000000
vn 0.981769 -0.190080 0.000000
vn 0.981769 -0.190080 0.000000
vn 0.981769 -0.190080 0.000000
vn 0.000000 -0.536756 -0.843738
vn 0.000000 -0.536756 -0.843738
vn 0.000000 -0.536756 -0.843738
vn 0.000000 -0.536756 -0.843738
vn -0.981769 -0.190075 0.000000
vn -0.981769 -0.190075 0.000000
vn -0.981769 -0.190075 0.000000
vn -0.981769 -0.190075 0.000000
vn 0.000000 0.324514 0.945881
vn 0.000000 0.324514 0.945881
vn 0.000000 0.324514 0.945881
vn 0.000000 0.324514 0.945881
vn 0.987316 0.158770 0.000000
vn 0.987316 0.158770 0.000000
vn 0.987316 0.158770 0.000000
vn 0.987316 0.158770 0.000000
vn 0.000000 0.324514 -0.945881
vn 0.000000 0.324514 -0.945881
vn 0.000000 0.324514 -0.945881
vn 0.000000 0.324514 -0.945881
vn -0.987316 0.158766 0.000000
vn -0.987316 0.158766 0.000000
vn -0.987316 0.158766 0.000000
vn -0.987316 0.158766 0.000000
vn 0.000000 0.000000 1.000000
vn 0.000000 0.000000 1.000000
vn 0.000000 0.000000 1.000000
vn 0.000000 0.000000 1.000000
vn 0.941099 0.338131 0.000000
vn 0.941099 0.338131 0.000000
vn 0.941099 0.338131 0.000000
vn 0.941099 0.338131 0.000000
vn 0.000000 0.000000 -1.000000
vn 0.000000 0.000000 -1.000000
vn 0.000000 0.000000 -1.000000
vn 0.000000 0.000000 -1.000000
vn -0.941099 0.338130 0.000000
vn -0.941099 0.338130 0.000000
vn -0.941099 0.338130 0.000000
vn -0.941099 0.338130 0.000000
vn 0.000000 0.000000 1.000000
vn 0.000000 0.000000 1.000000
vn 0.000000 0.000000 1.000000
vn 0.000000 0.000000 1.000000
vn 1.000000 0.000000 0.000000
vn 1.000000 0.000000 0.000000
vn 1.000000 0.000000 0.000000
vn 1.000000 0.000000 0.000000
vn 0.000000 0.000000 -1.000000
vn 0.000000 0.000000 -1.000000
vn 0.000000 0.000000 -1.000000
vn 0.000000 0.000000 -1.000000
vn -1.000000 0.000000 0.000000
vn -1.000000 0.000000 0.000000
vn -1.000000 0.000000 0.000000
vn -1.000000 0.000000 0.000000
vn 0.000000 0.124394 0.992233
vn 0.000000 0.124394 0.992233
vn 0.000000 0.124394 0.992233
vn 0.000000 0.124394 0.992233
vn 1.000000 0.000000 0.000000
vn 1.000000 0.000000 0.000000
vn 1.000000 0.000000 0.000000
vn 1.000000 0.000000 0.000000
vn 0.000000 0.124394 -0.992233
vn 0.000000 0.124394 -0.992233
vn 0.000000 0.124394 -0.992233
vn 0.000000 0.124394 -0.992233
vn -1.000000 -0.000001 0.000000
vn -1.000000 -0.000001 0.000000
vn -1.000000 -0.000001 0.000000
vn -1.000000 -0.000001 0.000000
vn 0.000000 -1.000000 0.000007
vn 0.000000 -1.000000 0.000007
vn 0.000000 -1.000000 0.000007
vn 0.000000 -1.000000 0.000007
vn 0.862238 0.000000 0.506504
vn 0.862238 0.000000 0.506504
vn 0.862238 0.000000 0.506504
vn 0.862238 0.000000 0.506504
vn 0.000000 1.000000 0.000000
vn 0.000000 1.000000 0.000000
vn 0.000000 1.000000 0.000000
vn 0.000000 1.000000 0.000000
vn -0.862238 0.000000 0.506504
vn -0.862238 0.000000 0.506504
vn -0.862238 0.000000 0.506504
vn -0.862238 0.000000 0.506504
vn 0.000000 -1.000000 -0.000007
vn 0.000000 -1.000000 -0.000007
vn 0.000000 -1.000000 -0.000007
vn 0.000000 -1.000000 -0.000007
vn -0.862238 0.000000 -0.506504
vn -0.862238 0.000000 -0.506504
vn -0.862238 0.000000 -0.506504
vn -0.862238 0.000000 -0.506504
vn 0.000000 1.000000 0.000000
vn 0.000000 1.000000 0.000000
vn 0.000000 1.000000 0.000000
vn 0.000000 1.000000 0.000000
vn 0.862238 0.000000 -0.506504
vn 0.862238 0.000000 -0.506504
vn 0.862238 0.000000 -0.506504
vn 0.862238 0.000000 -0.506504
s off
g pCube2
usemtl initialShadingGroup
f 1/77/1 2/78/2 4/79/3 3/80/4
f 33/45/5 34/46/6 35/47/7 36/48/8
f 5/81/9 6/82/10 8/83/11 7/84/12
f 7/49/13 8/50/14 2/51/15 1/52/16
f 2/1/17 8/2/18 6/3/19 4/4/20
f 7/5/21 1/6/22 3/7/23 5/8/24
f 3/53/25 4/54/26 10/55/27 9/56/28
f 4/54/29 6/57/30 11/58/31 10/55/32
f 6/57/33 5/59/34 12/60/35 11/58/36
f 5/59/37 3/53/38 9/56/39 12/60/40
f 9/85/41 10/86/42 14/87/43 13/88/44
f 10/9/45 11/10/46 15/11/47 14/12/48
f 11/95/49 12/96/50 16/97/51 15/98/52
f 12/27/53 9/28/54 13/29/55 16/30/56
f 13/88/57 14/87/58 18/89/59 17/90/60
f 14/12/61 15/11/62 19/13/63 18/14/64
f 15/98/65 16/97/66 20/99/67 19/100/68
f 16/30/69 13/29/70 17/31/71 20/32/72
f 17/90/73 18/89/74 22/91/75 21/92/76
f 18/14/77 19/13/78 23/15/79 22/16/80
f 19/100/81 20/99/82 24/101/83 23/102/84
f 20/32/85 17/31/86 21/33/87 24/34/88
f 21/92/89 22/91/90 26/93/91 25/94/92
f 22/16/93 23/15/94 27/17/95 26/18/96
f 23/102/97 24/101/98 28/103/99 27/104/100
f 24/34/101 21/33/102 25/35/103 28/36/104
f 37/105/105 38/106/106 39/107/107 40/108/108
f 26/18/109 27/17/110 31/19/111 30/20/112
f 42/109/113 41/110/114 43/111/115 44/112/116
f 28/36/117 25/35/118 29/37/119 32/38/120
f 29/113/121 30/114/122 34/115/123 33/116/124
f 30/20/125 31/19/126 35/23/127 34/24/128
f 31/117/129 32/118/130 36/119/131 35/120/132
f 32/38/133 29/37/134 33/41/135 36/42/136
f 25/61/137 26/62/138 38/63/139 37/64/140
f 26/18/141 30/20/142 39/25/143 38/26/144
f 30/65/145 29/66/146 40/67/147 39/68/148
f 29/37/149 25/35/150 37/39/151 40/40/152
f 27/69/153 28/70/154 41/71/155 42/72/156
f 28/36/157 32/38/158 43/43/159 41/44/160
f 32/73/161 31/74/162 44/75/163 43/76/164
f 31/19/165 27/17/166 42/21/167 44/22/168
